<?xml version="1.0" encoding="UTF-8"?>
<svg xmlns="http://www.w3.org/2000/svg" xmlns:xlink="http://www.w3.org/1999/xlink" width="640" height="480" viewBox="0 0 640 480">
<path fill-rule="nonzero" fill="rgb(100%, 100%, 100%)" fill-opacity="1" d="M 0 0 L 80 0 L 80 80 L 0 80 Z M 0 0 "/>
<path fill-rule="nonzero" fill="rgb(66.134664%, 62.82131%, 31.928609%)" fill-opacity="1" stroke-width="1" stroke-linecap="butt" stroke-linejoin="miter" stroke="rgb(46.134664%, 42.82131%, 11.928609%)" stroke-opacity="1" stroke-miterlimit="10" d="M 74 40 L 57 69.445312 L 23 69.445312 L 6 40 L 23 10.554688 L 57 10.554688 Z M 74 40 "/>
<path fill-rule="nonzero" fill="rgb(100%, 100%, 100%)" fill-opacity="1" d="M 80 0 L 160 0 L 160 80 L 80 80 Z M 80 0 "/>
<path fill-rule="nonzero" fill="rgb(85.598329%, 1.361094%, 50.263156%)" fill-opacity="1" stroke-width="1" stroke-linecap="butt" stroke-linejoin="miter" stroke="rgb(65.598329%, 0%, 30.263156%)" stroke-opacity="1" stroke-miterlimit="10" d="M 6 40 L 23 10.554688 L 57 10.554688 L 74 40 L 57 69.445312 L 23 69.445312 Z M 6 40 " transform="matrix(1, 0, 0, 1, 80, 0)"/>
<path fill-rule="nonzero" fill="rgb(100%, 100%, 100%)" fill-opacity="1" d="M 160 0 L 240 0 L 240 80 L 160 80 Z M 160 0 "/>
<path fill-rule="nonzero" fill="rgb(10.290318%, 0.575916%, 75.761107%)" fill-opacity="1" stroke-width="1" stroke-linecap="butt" stroke-linejoin="miter" stroke="rgb(0%, 0%, 55.761107%)" stroke-opacity="1" stroke-miterlimit="10" d="M 74 40 L 57 69.445312 L 23 69.445312 L 6 40 L 23 10.554688 L 57 10.554688 Z M 74 40 " transform="matrix(1, 0, 0, 1, 160, 0)"/>
<path fill-rule="nonzero" fill="rgb(100%, 100%, 100%)" fill-opacity="1" d="M 240 0 L 320 0 L 320 80 L 240 80 Z M 240 0 "/>
<path fill-rule="nonzero" fill="rgb(66.772962%, 86.867247%, 14.700762%)" fill-opacity="1" stroke-width="1" stroke-linecap="butt" stroke-linejoin="miter" stroke="rgb(46.772962%, 66.867247%, 0%)" stroke-opacity="1" stroke-miterlimit="10" d="M 40 6 L 69.445312 23 L 69.445312 57 L 40 74 L 10.554688 57 L 10.554688 23 Z M 40 6 " transform="matrix(1, 0, 0, 1, 240, 0)"/>
<path fill-rule="nonzero" fill="rgb(100%, 100%, 100%)" fill-opacity="1" d="M 320 0 L 400 0 L 400 80 L 320 80 Z M 320 0 "/>
<path fill-rule="nonzero" fill="rgb(13.64018%, 0.244686%, 97.802657%)" fill-opacity="1" stroke-width="1" stroke-linecap="butt" stroke-linejoin="miter" stroke="rgb(0%, 0%, 77.802657%)" stroke-opacity="1" stroke-miterlimit="10" d="M 6 40 L 23 10.554688 L 57 10.554688 L 74 40 L 57 69.445312 L 23 69.445312 Z M 6 40 " transform="matrix(1, 0, 0, 1, 320, 0)"/>
<path fill-rule="nonzero" fill="rgb(100%, 100%, 100%)" fill-opacity="1" d="M 400 0 L 480 0 L 480 80 L 400 80 Z M 400 0 "/>
<path fill-rule="nonzero" fill="rgb(9.848678%, 66.943493%, 64.171909%)" fill-opacity="1" stroke-width="1" stroke-linecap="butt" stroke-linejoin="miter" stroke="rgb(0%, 46.943493%, 44.171909%)" stroke-opacity="1" stroke-miterlimit="10" d="M 6 40 L 23 10.554688 L 57 10.554688 L 74 40 L 57 69.445312 L 23 69.445312 Z M 6 40 " transform="matrix(1, 0, 0, 1, 400, 0)"/>
<path fill-rule="nonzero" fill="rgb(100%, 100%, 100%)" fill-opacity="1" d="M 480 0 L 560 0 L 560 80 L 480 80 Z M 480 0 "/>
<path fill-rule="nonzero" fill="rgb(25.835522%, 18.811133%, 71.583542%)" fill-opacity="1" stroke-width="1" stroke-linecap="butt" stroke-linejoin="miter" stroke="rgb(5.835522%, 0%, 51.583542%)" stroke-opacity="1" stroke-miterlimit="10" d="M 6 40 L 23 10.554688 L 57 10.554688 L 74 40 L 57 69.445312 L 23 69.445312 Z M 6 40 " transform="matrix(1, 0, 0, 1, 480, 0)"/>
<path fill-rule="nonzero" fill="rgb(100%, 100%, 100%)" fill-opacity="1" d="M 560 0 L 640 0 L 640 80 L 560 80 Z M 560 0 "/>
<path fill-rule="nonzero" fill="rgb(76.870873%, 27.038635%, 19.50384%)" fill-opacity="1" stroke-width="1" stroke-linecap="butt" stroke-linejoin="miter" stroke="rgb(56.870873%, 7.038635%, 0%)" stroke-opacity="1" stroke-miterlimit="10" d="M 74 40 L 57 69.445312 L 23 69.445312 L 6 40 L 23 10.554688 L 57 10.554688 Z M 74 40 " transform="matrix(1, 0, 0, 1, 560, 0)"/>
<path fill-rule="nonzero" fill="rgb(100%, 100%, 100%)" fill-opacity="1" d="M 0 80 L 80 80 L 80 160 L 0 160 Z M 0 80 "/>
<path fill-rule="nonzero" fill="rgb(62.108758%, 51.999362%, 3.334303%)" fill-opacity="1" stroke-width="1" stroke-linecap="butt" stroke-linejoin="miter" stroke="rgb(42.108758%, 31.999362%, 0%)" stroke-opacity="1" stroke-miterlimit="10" d="M 40 74 L 10.554688 57 L 10.554688 23 L 40 6 L 69.445312 23 L 69.445312 57 Z M 40 74 " transform="matrix(1, 0, 0, 1, 0, 80)"/>
<path fill-rule="nonzero" fill="rgb(100%, 100%, 100%)" fill-opacity="1" d="M 80 80 L 160 80 L 160 160 L 80 160 Z M 80 80 "/>
<path fill-rule="nonzero" fill="rgb(13.143528%, 76.815113%, 8.676287%)" fill-opacity="1" stroke-width="1" stroke-linecap="butt" stroke-linejoin="miter" stroke="rgb(0%, 56.815113%, 0%)" stroke-opacity="1" stroke-miterlimit="10" d="M 40 74 L 10.554688 57 L 10.554688 23 L 40 6 L 69.445312 23 L 69.445312 57 Z M 40 74 " transform="matrix(1, 0, 0, 1, 80, 80)"/>
<path fill-rule="nonzero" fill="rgb(100%, 100%, 100%)" fill-opacity="1" d="M 160 80 L 240 80 L 240 160 L 160 160 Z M 160 80 "/>
<path fill-rule="nonzero" fill="rgb(22.305377%, 59.020668%, 83.901535%)" fill-opacity="1" stroke-width="1" stroke-linecap="butt" stroke-linejoin="miter" stroke="rgb(2.305377%, 39.020668%, 63.901535%)" stroke-opacity="1" stroke-miterlimit="10" d="M 74 40 L 57 69.445312 L 23 69.445312 L 6 40 L 23 10.554688 L 57 10.554688 Z M 74 40 " transform="matrix(1, 0, 0, 1, 160, 80)"/>
<path fill-rule="nonzero" fill="rgb(100%, 100%, 100%)" fill-opacity="1" d="M 240 80 L 320 80 L 320 160 L 240 160 Z M 240 80 "/>
<path fill-rule="nonzero" fill="rgb(31.826229%, 86.907322%, 13.370464%)" fill-opacity="1" stroke-width="1" stroke-linecap="butt" stroke-linejoin="miter" stroke="rgb(11.826229%, 66.907322%, 0%)" stroke-opacity="1" stroke-miterlimit="10" d="M 74 40 L 57 69.445312 L 23 69.445312 L 6 40 L 23 10.554688 L 57 10.554688 Z M 74 40 " transform="matrix(1, 0, 0, 1, 240, 80)"/>
<path fill-rule="nonzero" fill="rgb(100%, 100%, 100%)" fill-opacity="1" d="M 320 80 L 400 80 L 400 160 L 320 160 Z M 320 80 "/>
<path fill-rule="nonzero" fill="rgb(20.675549%, 57.284094%, 5.379155%)" fill-opacity="1" stroke-width="1" stroke-linecap="butt" stroke-linejoin="miter" stroke="rgb(0.675549%, 37.284094%, 0%)" stroke-opacity="1" stroke-miterlimit="10" d="M 40 74 L 10.554688 57 L 10.554688 23 L 40 6 L 69.445312 23 L 69.445312 57 Z M 40 74 " transform="matrix(1, 0, 0, 1, 320, 80)"/>
<path fill-rule="nonzero" fill="rgb(100%, 100%, 100%)" fill-opacity="1" d="M 400 80 L 480 80 L 480 160 L 400 160 Z M 400 80 "/>
<path fill-rule="nonzero" fill="rgb(75.533526%, 66.560606%, 14.958497%)" fill-opacity="1" stroke-width="1" stroke-linecap="butt" stroke-linejoin="miter" stroke="rgb(55.533526%, 46.560606%, 0%)" stroke-opacity="1" stroke-miterlimit="10" d="M 74 40 L 57 69.445312 L 23 69.445312 L 6 40 L 23 10.554688 L 57 10.554688 Z M 74 40 " transform="matrix(1, 0, 0, 1, 400, 80)"/>
<path fill-rule="nonzero" fill="rgb(100%, 100%, 100%)" fill-opacity="1" d="M 480 80 L 560 80 L 560 160 L 480 160 Z M 480 80 "/>
<path fill-rule="nonzero" fill="rgb(35.188702%, 39.671251%, 41.034953%)" fill-opacity="1" stroke-width="1" stroke-linecap="butt" stroke-linejoin="miter" stroke="rgb(15.188702%, 19.671251%, 21.034953%)" stroke-opacity="1" stroke-miterlimit="10" d="M 74 40 L 57 69.445312 L 23 69.445312 L 6 40 L 23 10.554688 L 57 10.554688 Z M 74 40 " transform="matrix(1, 0, 0, 1, 480, 80)"/>
<path fill-rule="nonzero" fill="rgb(100%, 100%, 100%)" fill-opacity="1" d="M 560 80 L 640 80 L 640 160 L 560 160 Z M 560 80 "/>
<path fill-rule="nonzero" fill="rgb(66.789992%, 35.280627%, 93.426962%)" fill-opacity="1" stroke-width="1" stroke-linecap="butt" stroke-linejoin="miter" stroke="rgb(46.789992%, 15.280627%, 73.426962%)" stroke-opacity="1" stroke-miterlimit="10" d="M 40 6 L 69.445312 23 L 69.445312 57 L 40 74 L 10.554688 57 L 10.554688 23 Z M 40 6 " transform="matrix(1, 0, 0, 1, 560, 80)"/>
<path fill-rule="nonzero" fill="rgb(100%, 100%, 100%)" fill-opacity="1" d="M 0 160 L 80 160 L 80 240 L 0 240 Z M 0 160 "/>
<path fill-rule="nonzero" fill="rgb(26.646823%, 58.829506%, 43.592431%)" fill-opacity="1" stroke-width="1" stroke-linecap="butt" stroke-linejoin="miter" stroke="rgb(6.646823%, 38.829506%, 23.592431%)" stroke-opacity="1" stroke-miterlimit="10" d="M 40 74 L 10.554688 57 L 10.554688 23 L 40 6 L 69.445312 23 L 69.445312 57 Z M 40 74 " transform="matrix(1, 0, 0, 1, 0, 160)"/>
<path fill-rule="nonzero" fill="rgb(100%, 100%, 100%)" fill-opacity="1" d="M 80 160 L 160 160 L 160 240 L 80 240 Z M 80 160 "/>
<path fill-rule="nonzero" fill="rgb(98.148945%, 86.637655%, 11.112964%)" fill-opacity="1" stroke-width="1" stroke-linecap="butt" stroke-linejoin="miter" stroke="rgb(78.148945%, 66.637655%, 0%)" stroke-opacity="1" stroke-miterlimit="10" d="M 40 6 L 69.445312 23 L 69.445312 57 L 40 74 L 10.554688 57 L 10.554688 23 Z M 40 6 " transform="matrix(1, 0, 0, 1, 80, 160)"/>
<path fill-rule="nonzero" fill="rgb(100%, 100%, 100%)" fill-opacity="1" d="M 160 160 L 240 160 L 240 240 L 160 240 Z M 160 160 "/>
<path fill-rule="nonzero" fill="rgb(16.315887%, 90.46522%, 52.624845%)" fill-opacity="1" stroke-width="1" stroke-linecap="butt" stroke-linejoin="miter" stroke="rgb(0%, 70.46522%, 32.624845%)" stroke-opacity="1" stroke-miterlimit="10" d="M 40 6 L 69.445312 23 L 69.445312 57 L 40 74 L 10.554688 57 L 10.554688 23 Z M 40 6 " transform="matrix(1, 0, 0, 1, 160, 160)"/>
<path fill-rule="nonzero" fill="rgb(100%, 100%, 100%)" fill-opacity="1" d="M 240 160 L 320 160 L 320 240 L 240 240 Z M 240 160 "/>
<path fill-rule="nonzero" fill="rgb(68.496083%, 26.660666%, 38.864124%)" fill-opacity="1" stroke-width="1" stroke-linecap="butt" stroke-linejoin="miter" stroke="rgb(48.496083%, 6.660666%, 18.864124%)" stroke-opacity="1" stroke-miterlimit="10" d="M 74 40 L 57 69.445312 L 23 69.445312 L 6 40 L 23 10.554688 L 57 10.554688 Z M 74 40 " transform="matrix(1, 0, 0, 1, 240, 160)"/>
<path fill-rule="nonzero" fill="rgb(100%, 100%, 100%)" fill-opacity="1" d="M 320 160 L 400 160 L 400 240 L 320 240 Z M 320 160 "/>
<path fill-rule="nonzero" fill="rgb(26.999465%, 31.885914%, 65.045764%)" fill-opacity="1" stroke-width="1" stroke-linecap="butt" stroke-linejoin="miter" stroke="rgb(6.999465%, 11.885914%, 45.045764%)" stroke-opacity="1" stroke-miterlimit="10" d="M 40 74 L 10.554688 57 L 10.554688 23 L 40 6 L 69.445312 23 L 69.445312 57 Z M 40 74 " transform="matrix(1, 0, 0, 1, 320, 160)"/>
<path fill-rule="nonzero" fill="rgb(100%, 100%, 100%)" fill-opacity="1" d="M 400 160 L 480 160 L 480 240 L 400 240 Z M 400 160 "/>
<path fill-rule="nonzero" fill="rgb(42.796468%, 39.937105%, 43.664419%)" fill-opacity="1" stroke-width="1" stroke-linecap="butt" stroke-linejoin="miter" stroke="rgb(22.796468%, 19.937105%, 23.664419%)" stroke-opacity="1" stroke-miterlimit="10" d="M 6 40 L 23 10.554688 L 57 10.554688 L 74 40 L 57 69.445312 L 23 69.445312 Z M 6 40 " transform="matrix(1, 0, 0, 1, 400, 160)"/>
<path fill-rule="nonzero" fill="rgb(100%, 100%, 100%)" fill-opacity="1" d="M 480 160 L 560 160 L 560 240 L 480 240 Z M 480 160 "/>
<path fill-rule="nonzero" fill="rgb(24.038119%, 71.151801%, 58.715354%)" fill-opacity="1" stroke-width="1" stroke-linecap="butt" stroke-linejoin="miter" stroke="rgb(4.038119%, 51.151801%, 38.715354%)" stroke-opacity="1" stroke-miterlimit="10" d="M 40 6 L 69.445312 23 L 69.445312 57 L 40 74 L 10.554688 57 L 10.554688 23 Z M 40 6 " transform="matrix(1, 0, 0, 1, 480, 160)"/>
<path fill-rule="nonzero" fill="rgb(100%, 100%, 100%)" fill-opacity="1" d="M 560 160 L 640 160 L 640 240 L 560 240 Z M 560 160 "/>
<path fill-rule="nonzero" fill="rgb(68.32265%, 82.868731%, 36.816945%)" fill-opacity="1" stroke-width="1" stroke-linecap="butt" stroke-linejoin="miter" stroke="rgb(48.32265%, 62.868731%, 16.816945%)" stroke-opacity="1" stroke-miterlimit="10" d="M 40 6 L 69.445312 23 L 69.445312 57 L 40 74 L 10.554688 57 L 10.554688 23 Z M 40 6 " transform="matrix(1, 0, 0, 1, 560, 160)"/>
<path fill-rule="nonzero" fill="rgb(100%, 100%, 100%)" fill-opacity="1" d="M 0 240 L 80 240 L 80 320 L 0 320 Z M 0 240 "/>
<path fill-rule="nonzero" fill="rgb(90.150815%, 18.758114%, 63.165006%)" fill-opacity="1" stroke-width="1" stroke-linecap="butt" stroke-linejoin="miter" stroke="rgb(70.150815%, 0%, 43.165006%)" stroke-opacity="1" stroke-miterlimit="10" d="M 74 40 L 57 69.445312 L 23 69.445312 L 6 40 L 23 10.554688 L 57 10.554688 Z M 74 40 " transform="matrix(1, 0, 0, 1, 0, 240)"/>
<path fill-rule="nonzero" fill="rgb(100%, 100%, 100%)" fill-opacity="1" d="M 80 240 L 160 240 L 160 320 L 80 320 Z M 80 240 "/>
<path fill-rule="nonzero" fill="rgb(22.607514%, 80.031463%, 64.081472%)" fill-opacity="1" stroke-width="1" stroke-linecap="butt" stroke-linejoin="miter" stroke="rgb(2.607514%, 60.031463%, 44.081472%)" stroke-opacity="1" stroke-miterlimit="10" d="M 40 74 L 10.554688 57 L 10.554688 23 L 40 6 L 69.445312 23 L 69.445312 57 Z M 40 74 " transform="matrix(1, 0, 0, 1, 80, 240)"/>
<path fill-rule="nonzero" fill="rgb(100%, 100%, 100%)" fill-opacity="1" d="M 160 240 L 240 240 L 240 320 L 160 320 Z M 160 240 "/>
<path fill-rule="nonzero" fill="rgb(69.612782%, 47.473941%, 4.851832%)" fill-opacity="1" stroke-width="1" stroke-linecap="butt" stroke-linejoin="miter" stroke="rgb(49.612782%, 27.473941%, 0%)" stroke-opacity="1" stroke-miterlimit="10" d="M 40 6 L 69.445312 23 L 69.445312 57 L 40 74 L 10.554688 57 L 10.554688 23 Z M 40 6 " transform="matrix(1, 0, 0, 1, 160, 240)"/>
<path fill-rule="nonzero" fill="rgb(100%, 100%, 100%)" fill-opacity="1" d="M 240 240 L 320 240 L 320 320 L 240 320 Z M 240 240 "/>
<path fill-rule="nonzero" fill="rgb(83.050884%, 33.174275%, 14.173482%)" fill-opacity="1" stroke-width="1" stroke-linecap="butt" stroke-linejoin="miter" stroke="rgb(63.050884%, 13.174275%, 0%)" stroke-opacity="1" stroke-miterlimit="10" d="M 74 40 L 57 69.445312 L 23 69.445312 L 6 40 L 23 10.554688 L 57 10.554688 Z M 74 40 " transform="matrix(1, 0, 0, 1, 240, 240)"/>
<path fill-rule="nonzero" fill="rgb(100%, 100%, 100%)" fill-opacity="1" d="M 320 240 L 400 240 L 400 320 L 320 320 Z M 320 240 "/>
<path fill-rule="nonzero" fill="rgb(49.561888%, 13.779198%, 74.264888%)" fill-opacity="1" stroke-width="1" stroke-linecap="butt" stroke-linejoin="miter" stroke="rgb(29.561888%, 0%, 54.264888%)" stroke-opacity="1" stroke-miterlimit="10" d="M 40 74 L 10.554688 57 L 10.554688 23 L 40 6 L 69.445312 23 L 69.445312 57 Z M 40 74 " transform="matrix(1, 0, 0, 1, 320, 240)"/>
<path fill-rule="nonzero" fill="rgb(100%, 100%, 100%)" fill-opacity="1" d="M 400 240 L 480 240 L 480 320 L 400 320 Z M 400 240 "/>
<path fill-rule="nonzero" fill="rgb(45.100063%, 83.83697%, 39.680726%)" fill-opacity="1" stroke-width="1" stroke-linecap="butt" stroke-linejoin="miter" stroke="rgb(25.100063%, 63.83697%, 19.680726%)" stroke-opacity="1" stroke-miterlimit="10" d="M 40 74 L 10.554688 57 L 10.554688 23 L 40 6 L 69.445312 23 L 69.445312 57 Z M 40 74 " transform="matrix(1, 0, 0, 1, 400, 240)"/>
<path fill-rule="nonzero" fill="rgb(100%, 100%, 100%)" fill-opacity="1" d="M 480 240 L 560 240 L 560 320 L 480 320 Z M 480 240 "/>
<path fill-rule="nonzero" fill="rgb(76.089467%, 96.46603%, 96.874597%)" fill-opacity="1" stroke-width="1" stroke-linecap="butt" stroke-linejoin="miter" stroke="rgb(56.089467%, 76.46603%, 76.874597%)" stroke-opacity="1" stroke-miterlimit="10" d="M 40 74 L 10.554688 57 L 10.554688 23 L 40 6 L 69.445312 23 L 69.445312 57 Z M 40 74 " transform="matrix(1, 0, 0, 1, 480, 240)"/>
<path fill-rule="nonzero" fill="rgb(100%, 100%, 100%)" fill-opacity="1" d="M 560 240 L 640 240 L 640 320 L 560 320 Z M 560 240 "/>
<path fill-rule="nonzero" fill="rgb(5.453493%, 84.101234%, 8.358285%)" fill-opacity="1" stroke-width="1" stroke-linecap="butt" stroke-linejoin="miter" stroke="rgb(0%, 64.101234%, 0%)" stroke-opacity="1" stroke-miterlimit="10" d="M 6 40 L 23 10.554688 L 57 10.554688 L 74 40 L 57 69.445312 L 23 69.445312 Z M 6 40 " transform="matrix(1, 0, 0, 1, 560, 240)"/>
<path fill-rule="nonzero" fill="rgb(100%, 100%, 100%)" fill-opacity="1" d="M 0 320 L 80 320 L 80 400 L 0 400 Z M 0 320 "/>
<path fill-rule="nonzero" fill="rgb(52.721242%, 67.826308%, 46.277424%)" fill-opacity="1" stroke-width="1" stroke-linecap="butt" stroke-linejoin="miter" stroke="rgb(32.721242%, 47.826308%, 26.277424%)" stroke-opacity="1" stroke-miterlimit="10" d="M 40 74 L 10.554688 57 L 10.554688 23 L 40 6 L 69.445312 23 L 69.445312 57 Z M 40 74 " transform="matrix(1, 0, 0, 1, 0, 320)"/>
<path fill-rule="nonzero" fill="rgb(100%, 100%, 100%)" fill-opacity="1" d="M 80 320 L 160 320 L 160 400 L 80 400 Z M 80 320 "/>
<path fill-rule="nonzero" fill="rgb(73.561246%, 79.931571%, 71.811669%)" fill-opacity="1" stroke-width="1" stroke-linecap="butt" stroke-linejoin="miter" stroke="rgb(53.561246%, 59.931571%, 51.811669%)" stroke-opacity="1" stroke-miterlimit="10" d="M 74 40 L 57 69.445312 L 23 69.445312 L 6 40 L 23 10.554688 L 57 10.554688 Z M 74 40 " transform="matrix(1, 0, 0, 1, 80, 320)"/>
<path fill-rule="nonzero" fill="rgb(100%, 100%, 100%)" fill-opacity="1" d="M 160 320 L 240 320 L 240 400 L 160 400 Z M 160 320 "/>
<path fill-rule="nonzero" fill="rgb(14.370828%, 19.404059%, 73.44119%)" fill-opacity="1" stroke-width="1" stroke-linecap="butt" stroke-linejoin="miter" stroke="rgb(0%, 0%, 53.44119%)" stroke-opacity="1" stroke-miterlimit="10" d="M 74 40 L 57 69.445312 L 23 69.445312 L 6 40 L 23 10.554688 L 57 10.554688 Z M 74 40 " transform="matrix(1, 0, 0, 1, 160, 320)"/>
<path fill-rule="nonzero" fill="rgb(100%, 100%, 100%)" fill-opacity="1" d="M 240 320 L 320 320 L 320 400 L 240 400 Z M 240 320 "/>
<path fill-rule="nonzero" fill="rgb(80.516975%, 48.652295%, 82.783268%)" fill-opacity="1" stroke-width="1" stroke-linecap="butt" stroke-linejoin="miter" stroke="rgb(60.516975%, 28.652295%, 62.783268%)" stroke-opacity="1" stroke-miterlimit="10" d="M 6 40 L 23 10.554688 L 57 10.554688 L 74 40 L 57 69.445312 L 23 69.445312 Z M 6 40 " transform="matrix(1, 0, 0, 1, 240, 320)"/>
<path fill-rule="nonzero" fill="rgb(100%, 100%, 100%)" fill-opacity="1" d="M 320 320 L 400 320 L 400 400 L 320 400 Z M 320 320 "/>
<path fill-rule="nonzero" fill="rgb(96.267774%, 89.658503%, 31.7838%)" fill-opacity="1" stroke-width="1" stroke-linecap="butt" stroke-linejoin="miter" stroke="rgb(76.267774%, 69.658503%, 11.7838%)" stroke-opacity="1" stroke-miterlimit="10" d="M 6 40 L 23 10.554688 L 57 10.554688 L 74 40 L 57 69.445312 L 23 69.445312 Z M 6 40 " transform="matrix(1, 0, 0, 1, 320, 320)"/>
<path fill-rule="nonzero" fill="rgb(100%, 100%, 100%)" fill-opacity="1" d="M 400 320 L 480 320 L 480 400 L 400 400 Z M 400 320 "/>
<path fill-rule="nonzero" fill="rgb(34.631324%, 5.949812%, 70.79876%)" fill-opacity="1" stroke-width="1" stroke-linecap="butt" stroke-linejoin="miter" stroke="rgb(14.631324%, 0%, 50.79876%)" stroke-opacity="1" stroke-miterlimit="10" d="M 40 74 L 10.554688 57 L 10.554688 23 L 40 6 L 69.445312 23 L 69.445312 57 Z M 40 74 " transform="matrix(1, 0, 0, 1, 400, 320)"/>
<path fill-rule="nonzero" fill="rgb(100%, 100%, 100%)" fill-opacity="1" d="M 480 320 L 560 320 L 560 400 L 480 400 Z M 480 320 "/>
<path fill-rule="nonzero" fill="rgb(38.840317%, 3.294062%, 67.134361%)" fill-opacity="1" stroke-width="1" stroke-linecap="butt" stroke-linejoin="miter" stroke="rgb(18.840317%, 0%, 47.134361%)" stroke-opacity="1" stroke-miterlimit="10" d="M 40 74 L 10.554688 57 L 10.554688 23 L 40 6 L 69.445312 23 L 69.445312 57 Z M 40 74 " transform="matrix(1, 0, 0, 1, 480, 320)"/>
<path fill-rule="nonzero" fill="rgb(100%, 100%, 100%)" fill-opacity="1" d="M 560 320 L 640 320 L 640 400 L 560 400 Z M 560 320 "/>
<path fill-rule="nonzero" fill="rgb(68.887912%, 31.659401%, 67.206668%)" fill-opacity="1" stroke-width="1" stroke-linecap="butt" stroke-linejoin="miter" stroke="rgb(48.887912%, 11.659401%, 47.206668%)" stroke-opacity="1" stroke-miterlimit="10" d="M 40 6 L 69.445312 23 L 69.445312 57 L 40 74 L 10.554688 57 L 10.554688 23 Z M 40 6 " transform="matrix(1, 0, 0, 1, 560, 320)"/>
<path fill-rule="nonzero" fill="rgb(100%, 100%, 100%)" fill-opacity="1" d="M 0 400 L 80 400 L 80 480 L 0 480 Z M 0 400 "/>
<path fill-rule="nonzero" fill="rgb(69.578514%, 8.6958%, 13.105433%)" fill-opacity="1" stroke-width="1" stroke-linecap="butt" stroke-linejoin="miter" stroke="rgb(49.578514%, 0%, 0%)" stroke-opacity="1" stroke-miterlimit="10" d="M 74 40 L 57 69.445312 L 23 69.445312 L 6 40 L 23 10.554688 L 57 10.554688 Z M 74 40 " transform="matrix(1, 0, 0, 1, 0, 400)"/>
<path fill-rule="nonzero" fill="rgb(100%, 100%, 100%)" fill-opacity="1" d="M 80 400 L 160 400 L 160 480 L 80 480 Z M 80 400 "/>
<path fill-rule="nonzero" fill="rgb(24.27203%, 92.331157%, 71.122705%)" fill-opacity="1" stroke-width="1" stroke-linecap="butt" stroke-linejoin="miter" stroke="rgb(4.27203%, 72.331157%, 51.122705%)" stroke-opacity="1" stroke-miterlimit="10" d="M 74 40 L 57 69.445312 L 23 69.445312 L 6 40 L 23 10.554688 L 57 10.554688 Z M 74 40 " transform="matrix(1, 0, 0, 1, 80, 400)"/>
<path fill-rule="nonzero" fill="rgb(100%, 100%, 100%)" fill-opacity="1" d="M 160 400 L 240 400 L 240 480 L 160 480 Z M 160 400 "/>
<path fill-rule="nonzero" fill="rgb(8.630344%, 21.225127%, 73.014189%)" fill-opacity="1" stroke-width="1" stroke-linecap="butt" stroke-linejoin="miter" stroke="rgb(0%, 1.225127%, 53.014189%)" stroke-opacity="1" stroke-miterlimit="10" d="M 40 6 L 69.445312 23 L 69.445312 57 L 40 74 L 10.554688 57 L 10.554688 23 Z M 40 6 " transform="matrix(1, 0, 0, 1, 160, 400)"/>
<path fill-rule="nonzero" fill="rgb(100%, 100%, 100%)" fill-opacity="1" d="M 240 400 L 320 400 L 320 480 L 240 480 Z M 240 400 "/>
<path fill-rule="nonzero" fill="rgb(37.420023%, 52.105284%, 59.326343%)" fill-opacity="1" stroke-width="1" stroke-linecap="butt" stroke-linejoin="miter" stroke="rgb(17.420023%, 32.105284%, 39.326343%)" stroke-opacity="1" stroke-miterlimit="10" d="M 40 6 L 69.445312 23 L 69.445312 57 L 40 74 L 10.554688 57 L 10.554688 23 Z M 40 6 " transform="matrix(1, 0, 0, 1, 240, 400)"/>
<path fill-rule="nonzero" fill="rgb(100%, 100%, 100%)" fill-opacity="1" d="M 320 400 L 400 400 L 400 480 L 320 480 Z M 320 400 "/>
<path fill-rule="nonzero" fill="rgb(73.759899%, 47.013976%, 46.668978%)" fill-opacity="1" stroke-width="1" stroke-linecap="butt" stroke-linejoin="miter" stroke="rgb(53.759899%, 27.013976%, 26.668978%)" stroke-opacity="1" stroke-miterlimit="10" d="M 40 74 L 10.554688 57 L 10.554688 23 L 40 6 L 69.445312 23 L 69.445312 57 Z M 40 74 " transform="matrix(1, 0, 0, 1, 320, 400)"/>
<path fill-rule="nonzero" fill="rgb(100%, 100%, 100%)" fill-opacity="1" d="M 400 400 L 480 400 L 480 480 L 400 480 Z M 400 400 "/>
<path fill-rule="nonzero" fill="rgb(79.991689%, 2.404484%, 60.629041%)" fill-opacity="1" stroke-width="1" stroke-linecap="butt" stroke-linejoin="miter" stroke="rgb(59.991689%, 0%, 40.629041%)" stroke-opacity="1" stroke-miterlimit="10" d="M 6 40 L 23 10.554688 L 57 10.554688 L 74 40 L 57 69.445312 L 23 69.445312 Z M 6 40 " transform="matrix(1, 0, 0, 1, 400, 400)"/>
<path fill-rule="nonzero" fill="rgb(100%, 100%, 100%)" fill-opacity="1" d="M 480 400 L 560 400 L 560 480 L 480 480 Z M 480 400 "/>
<path fill-rule="nonzero" fill="rgb(84.567932%, 27.971371%, 79.417639%)" fill-opacity="1" stroke-width="1" stroke-linecap="butt" stroke-linejoin="miter" stroke="rgb(64.567932%, 7.971371%, 59.417639%)" stroke-opacity="1" stroke-miterlimit="10" d="M 74 40 L 57 69.445312 L 23 69.445312 L 6 40 L 23 10.554688 L 57 10.554688 Z M 74 40 " transform="matrix(1, 0, 0, 1, 480, 400)"/>
<path fill-rule="nonzero" fill="rgb(100%, 100%, 100%)" fill-opacity="1" d="M 560 400 L 640 400 L 640 480 L 560 480 Z M 560 400 "/>
<path fill-rule="nonzero" fill="rgb(84.731515%, 61.362033%, 66.748418%)" fill-opacity="1" stroke-width="1" stroke-linecap="butt" stroke-linejoin="miter" stroke="rgb(64.731515%, 41.362033%, 46.748418%)" stroke-opacity="1" stroke-miterlimit="10" d="M 74 40 L 57 69.445312 L 23 69.445312 L 6 40 L 23 10.554688 L 57 10.554688 Z M 74 40 " transform="matrix(1, 0, 0, 1, 560, 400)"/>
</svg>
