<?xml version="1.0" encoding="UTF-8"?>
<svg xmlns="http://www.w3.org/2000/svg" xmlns:xlink="http://www.w3.org/1999/xlink" width="640" height="480" viewBox="0 0 640 480">
<path fill-rule="nonzero" fill="rgb(100%, 100%, 100%)" fill-opacity="1" d="M 0 0 L 80 0 L 80 80 L 0 80 Z M 0 0 "/>
<path fill-rule="nonzero" fill="rgb(66.960469%, 8.418208%, 45.358362%)" fill-opacity="1" stroke-width="1" stroke-linecap="butt" stroke-linejoin="miter" stroke="rgb(46.960469%, 0%, 25.358362%)" stroke-opacity="1" stroke-miterlimit="10" d="M 96.570312 40 L 40 96.570312 L -16.570313 40 L 40 -16.570312 Z M 96.570312 40 " transform="matrix(-0.000000000000000184, -1, 1, -0.000000000000000184, 0.000000000000007105, 80)"/>
<path fill-rule="nonzero" fill="rgb(100%, 100%, 100%)" fill-opacity="1" d="M 80 0 L 160 0 L 160 80 L 80 80 Z M 80 0 "/>
<path fill-rule="nonzero" fill="rgb(97.468752%, 72.648811%, 80.229223%)" fill-opacity="1" stroke-width="1" stroke-linecap="butt" stroke-linejoin="miter" stroke="rgb(77.468752%, 52.648811%, 60.229223%)" stroke-opacity="1" stroke-miterlimit="10" d="M 96.570312 40 L 40 96.570313 L -16.570312 40 L 40 -16.570312 Z M 96.570312 40 " transform="matrix(-0.000000000000000184, -1, 1, -0.000000000000000184, 80, 80)"/>
<path fill-rule="nonzero" fill="rgb(100%, 100%, 100%)" fill-opacity="1" d="M 160 0 L 240 0 L 240 80 L 160 80 Z M 160 0 "/>
<path fill-rule="nonzero" fill="rgb(31.449245%, 43.366618%, 49.693831%)" fill-opacity="1" stroke-width="1" stroke-linecap="butt" stroke-linejoin="miter" stroke="rgb(11.449245%, 23.366618%, 29.693831%)" stroke-opacity="1" stroke-miterlimit="10" d="M 96.570312 40 L 40 96.570312 L -16.570313 40 L 40 -16.570312 Z M 96.570312 40 " transform="matrix(0.000000000000000061, 1, -1, 0.000000000000000061, 240, 0)"/>
<path fill-rule="nonzero" fill="rgb(100%, 100%, 100%)" fill-opacity="1" d="M 240 0 L 320 0 L 320 80 L 240 80 Z M 240 0 "/>
<path fill-rule="nonzero" fill="rgb(48.369954%, 33.303515%, 74.88817%)" fill-opacity="1" stroke-width="1" stroke-linecap="butt" stroke-linejoin="miter" stroke="rgb(28.369954%, 13.303515%, 54.88817%)" stroke-opacity="1" stroke-miterlimit="10" d="M 96.570312 40 L 40 96.570312 L -16.570312 40 L 40 -16.570312 Z M 96.570312 40 " transform="matrix(0.000000000000000061, 1, -1, 0.000000000000000061, 320, 0)"/>
<path fill-rule="nonzero" fill="rgb(100%, 100%, 100%)" fill-opacity="1" d="M 320 0 L 400 0 L 400 80 L 320 80 Z M 320 0 "/>
<path fill-rule="nonzero" fill="rgb(23.324513%, 83.065682%, 6.713535%)" fill-opacity="1" stroke-width="1" stroke-linecap="butt" stroke-linejoin="miter" stroke="rgb(3.324513%, 63.065682%, 0%)" stroke-opacity="1" stroke-miterlimit="10" d="M 96.570312 40 L 40 96.570312 L -16.570312 40 L 40 -16.570312 Z M 96.570312 40 " transform="matrix(1, 0, 0, 1, 320, 0)"/>
<path fill-rule="nonzero" fill="rgb(100%, 100%, 100%)" fill-opacity="1" d="M 400 0 L 480 0 L 480 80 L 400 80 Z M 400 0 "/>
<path fill-rule="nonzero" fill="rgb(29.074811%, 97.168698%, 7.593485%)" fill-opacity="1" stroke-width="1" stroke-linecap="butt" stroke-linejoin="miter" stroke="rgb(9.074811%, 77.168698%, 0%)" stroke-opacity="1" stroke-miterlimit="10" d="M 96.570312 40 L 40 96.570312 L -16.570312 40 L 40 -16.570312 Z M 96.570312 40 " transform="matrix(0.000000000000000061, 1, -1, 0.000000000000000061, 480, 0)"/>
<path fill-rule="nonzero" fill="rgb(100%, 100%, 100%)" fill-opacity="1" d="M 480 0 L 560 0 L 560 80 L 480 80 Z M 480 0 "/>
<path fill-rule="nonzero" fill="rgb(50.905181%, 56.170326%, 13.086536%)" fill-opacity="1" stroke-width="1" stroke-linecap="butt" stroke-linejoin="miter" stroke="rgb(30.905181%, 36.170326%, 0%)" stroke-opacity="1" stroke-miterlimit="10" d="M 96.570312 40 L 40 96.570312 L -16.570312 40 L 40 -16.570312 Z M 96.570312 40 " transform="matrix(1, 0, 0, 1, 480, 0)"/>
<path fill-rule="nonzero" fill="rgb(100%, 100%, 100%)" fill-opacity="1" d="M 560 0 L 640 0 L 640 80 L 560 80 Z M 560 0 "/>
<path fill-rule="nonzero" fill="rgb(78.810875%, 83.633862%, 24.84623%)" fill-opacity="1" stroke-width="1" stroke-linecap="butt" stroke-linejoin="miter" stroke="rgb(58.810875%, 63.633862%, 4.84623%)" stroke-opacity="1" stroke-miterlimit="10" d="M 96.570312 40 L 40 96.570312 L -16.570312 40 L 40 -16.570312 Z M 96.570312 40 " transform="matrix(-0.000000000000000184, -1, 1, -0.000000000000000184, 560, 80)"/>
<path fill-rule="nonzero" fill="rgb(100%, 100%, 100%)" fill-opacity="1" d="M 0 80 L 80 80 L 80 160 L 0 160 Z M 0 80 "/>
<path fill-rule="nonzero" fill="rgb(33.417532%, 53.712071%, 35.193491%)" fill-opacity="1" stroke-width="1" stroke-linecap="butt" stroke-linejoin="miter" stroke="rgb(13.417532%, 33.712071%, 15.193491%)" stroke-opacity="1" stroke-miterlimit="10" d="M 96.570312 40 L 40 96.570312 L -16.570312 40 L 40 -16.570312 Z M 96.570312 40 " transform="matrix(-1, 0.000000000000000122, -0.000000000000000122, -1, 80, 160)"/>
<path fill-rule="nonzero" fill="rgb(100%, 100%, 100%)" fill-opacity="1" d="M 80 80 L 160 80 L 160 160 L 80 160 Z M 80 80 "/>
<path fill-rule="nonzero" fill="rgb(5.893138%, 40.722733%, 21.460496%)" fill-opacity="1" stroke-width="1" stroke-linecap="butt" stroke-linejoin="miter" stroke="rgb(0%, 20.722733%, 1.460496%)" stroke-opacity="1" stroke-miterlimit="10" d="M 96.570312 40 L 40 96.570312 L -16.570313 40 L 40 -16.570312 Z M 96.570312 40 " transform="matrix(0.000000000000000061, 1, -1, 0.000000000000000061, 160, 80)"/>
<path fill-rule="nonzero" fill="rgb(100%, 100%, 100%)" fill-opacity="1" d="M 160 80 L 240 80 L 240 160 L 160 160 Z M 160 80 "/>
<path fill-rule="nonzero" fill="rgb(91.555355%, 27.177301%, 42.861952%)" fill-opacity="1" stroke-width="1" stroke-linecap="butt" stroke-linejoin="miter" stroke="rgb(71.555355%, 7.177301%, 22.861952%)" stroke-opacity="1" stroke-miterlimit="10" d="M 96.570312 40 L 40 96.570312 L -16.570313 40 L 40 -16.570312 Z M 96.570312 40 " transform="matrix(-1, 0.000000000000000122, -0.000000000000000122, -1, 240, 160)"/>
<path fill-rule="nonzero" fill="rgb(100%, 100%, 100%)" fill-opacity="1" d="M 240 80 L 320 80 L 320 160 L 240 160 Z M 240 80 "/>
<path fill-rule="nonzero" fill="rgb(2.13455%, 23.83308%, 80.869517%)" fill-opacity="1" stroke-width="1" stroke-linecap="butt" stroke-linejoin="miter" stroke="rgb(0%, 3.83308%, 60.869517%)" stroke-opacity="1" stroke-miterlimit="10" d="M 96.570313 40 L 40 96.570312 L -16.570312 40 L 40 -16.570312 Z M 96.570313 40 " transform="matrix(-1, 0.000000000000000122, -0.000000000000000122, -1, 320, 160)"/>
<path fill-rule="nonzero" fill="rgb(100%, 100%, 100%)" fill-opacity="1" d="M 320 80 L 400 80 L 400 160 L 320 160 Z M 320 80 "/>
<path fill-rule="nonzero" fill="rgb(4.88498%, 57.043592%, 53.906578%)" fill-opacity="1" stroke-width="1" stroke-linecap="butt" stroke-linejoin="miter" stroke="rgb(0%, 37.043592%, 33.906578%)" stroke-opacity="1" stroke-miterlimit="10" d="M 96.570312 40 L 40 96.570312 L -16.570312 40 L 40 -16.570312 Z M 96.570312 40 " transform="matrix(1, 0, 0, 1, 320, 80)"/>
<path fill-rule="nonzero" fill="rgb(100%, 100%, 100%)" fill-opacity="1" d="M 400 80 L 480 80 L 480 160 L 400 160 Z M 400 80 "/>
<path fill-rule="nonzero" fill="rgb(64.306527%, 37.82969%, 48.652479%)" fill-opacity="1" stroke-width="1" stroke-linecap="butt" stroke-linejoin="miter" stroke="rgb(44.306527%, 17.82969%, 28.652479%)" stroke-opacity="1" stroke-miterlimit="10" d="M 96.570312 40 L 40 96.570312 L -16.570312 40 L 40 -16.570312 Z M 96.570312 40 " transform="matrix(-0.000000000000000184, -1, 1, -0.000000000000000184, 400, 160)"/>
<path fill-rule="nonzero" fill="rgb(100%, 100%, 100%)" fill-opacity="1" d="M 480 80 L 560 80 L 560 160 L 480 160 Z M 480 80 "/>
<path fill-rule="nonzero" fill="rgb(58.623613%, 66.349387%, 24.703297%)" fill-opacity="1" stroke-width="1" stroke-linecap="butt" stroke-linejoin="miter" stroke="rgb(38.623613%, 46.349387%, 4.703297%)" stroke-opacity="1" stroke-miterlimit="10" d="M 96.570312 40 L 40 96.570312 L -16.570312 40 L 40 -16.570312 Z M 96.570312 40 " transform="matrix(0.000000000000000061, 1, -1, 0.000000000000000061, 560, 80)"/>
<path fill-rule="nonzero" fill="rgb(100%, 100%, 100%)" fill-opacity="1" d="M 560 80 L 640 80 L 640 160 L 560 160 Z M 560 80 "/>
<path fill-rule="nonzero" fill="rgb(25.921598%, 52.612369%, 51.439545%)" fill-opacity="1" stroke-width="1" stroke-linecap="butt" stroke-linejoin="miter" stroke="rgb(5.921598%, 32.612369%, 31.439545%)" stroke-opacity="1" stroke-miterlimit="10" d="M 96.570312 40 L 40 96.570312 L -16.570312 40 L 40 -16.570312 Z M 96.570312 40 " transform="matrix(1, 0, 0, 1, 560, 80)"/>
<path fill-rule="nonzero" fill="rgb(100%, 100%, 100%)" fill-opacity="1" d="M 0 160 L 80 160 L 80 240 L 0 240 Z M 0 160 "/>
<path fill-rule="nonzero" fill="rgb(2.301985%, 13.448247%, 49.633683%)" fill-opacity="1" stroke-width="1" stroke-linecap="butt" stroke-linejoin="miter" stroke="rgb(0%, 0%, 29.633683%)" stroke-opacity="1" stroke-miterlimit="10" d="M 96.570312 40 L 40 96.570312 L -16.570312 40 L 40 -16.570312 Z M 96.570312 40 " transform="matrix(1, 0, 0, 1, 0, 160)"/>
<path fill-rule="nonzero" fill="rgb(100%, 100%, 100%)" fill-opacity="1" d="M 80 160 L 160 160 L 160 240 L 80 240 Z M 80 160 "/>
<path fill-rule="nonzero" fill="rgb(62.704208%, 29.568085%, 3.646162%)" fill-opacity="1" stroke-width="1" stroke-linecap="butt" stroke-linejoin="miter" stroke="rgb(42.704208%, 9.568085%, 0%)" stroke-opacity="1" stroke-miterlimit="10" d="M 96.570312 40 L 40 96.570313 L -16.570312 40 L 40 -16.570312 Z M 96.570312 40 " transform="matrix(0.000000000000000061, 1, -1, 0.000000000000000061, 160, 160)"/>
<path fill-rule="nonzero" fill="rgb(100%, 100%, 100%)" fill-opacity="1" d="M 160 160 L 240 160 L 240 240 L 160 240 Z M 160 160 "/>
<path fill-rule="nonzero" fill="rgb(38.127339%, 4.934537%, 19.492308%)" fill-opacity="1" stroke-width="1" stroke-linecap="butt" stroke-linejoin="miter" stroke="rgb(18.127339%, 0%, 0%)" stroke-opacity="1" stroke-miterlimit="10" d="M 96.570312 40 L 40 96.570312 L -16.570312 40 L 40 -16.570312 Z M 96.570312 40 " transform="matrix(0.000000000000000061, 1, -1, 0.000000000000000061, 240, 160)"/>
<path fill-rule="nonzero" fill="rgb(100%, 100%, 100%)" fill-opacity="1" d="M 240 160 L 320 160 L 320 240 L 240 240 Z M 240 160 "/>
<path fill-rule="nonzero" fill="rgb(16.499943%, 8.263536%, 1.455602%)" fill-opacity="1" stroke-width="1" stroke-linecap="butt" stroke-linejoin="miter" stroke="rgb(0%, 0%, 0%)" stroke-opacity="1" stroke-miterlimit="10" d="M 96.570313 40 L 40 96.570312 L -16.570312 40 L 40 -16.570313 Z M 96.570313 40 " transform="matrix(-1, 0.000000000000000122, -0.000000000000000122, -1, 320, 240)"/>
<path fill-rule="nonzero" fill="rgb(100%, 100%, 100%)" fill-opacity="1" d="M 320 160 L 400 160 L 400 240 L 320 240 Z M 320 160 "/>
<path fill-rule="nonzero" fill="rgb(98.34455%, 46.963825%, 64.996802%)" fill-opacity="1" stroke-width="1" stroke-linecap="butt" stroke-linejoin="miter" stroke="rgb(78.34455%, 26.963825%, 44.996802%)" stroke-opacity="1" stroke-miterlimit="10" d="M 96.570312 40 L 40 96.570312 L -16.570312 40 L 40 -16.570312 Z M 96.570312 40 " transform="matrix(-1, 0.000000000000000122, -0.000000000000000122, -1, 400, 240)"/>
<path fill-rule="nonzero" fill="rgb(100%, 100%, 100%)" fill-opacity="1" d="M 400 160 L 480 160 L 480 240 L 400 240 Z M 400 160 "/>
<path fill-rule="nonzero" fill="rgb(45.425267%, 73.522697%, 34.926528%)" fill-opacity="1" stroke-width="1" stroke-linecap="butt" stroke-linejoin="miter" stroke="rgb(25.425267%, 53.522697%, 14.926528%)" stroke-opacity="1" stroke-miterlimit="10" d="M 96.570312 40 L 40 96.570312 L -16.570312 40 L 40 -16.570312 Z M 96.570312 40 " transform="matrix(-0.000000000000000184, -1, 1, -0.000000000000000184, 400, 240)"/>
<path fill-rule="nonzero" fill="rgb(100%, 100%, 100%)" fill-opacity="1" d="M 480 160 L 560 160 L 560 240 L 480 240 Z M 480 160 "/>
<path fill-rule="nonzero" fill="rgb(73.991847%, 23.510814%, 66.781367%)" fill-opacity="1" stroke-width="1" stroke-linecap="butt" stroke-linejoin="miter" stroke="rgb(53.991847%, 3.510814%, 46.781367%)" stroke-opacity="1" stroke-miterlimit="10" d="M 96.570313 40 L 40 96.570312 L -16.570312 40 L 40 -16.570312 Z M 96.570313 40 " transform="matrix(0.000000000000000061, 1, -1, 0.000000000000000061, 560, 160)"/>
<path fill-rule="nonzero" fill="rgb(100%, 100%, 100%)" fill-opacity="1" d="M 560 160 L 640 160 L 640 240 L 560 240 Z M 560 160 "/>
<path fill-rule="nonzero" fill="rgb(16.939752%, 35.589516%, 81.436945%)" fill-opacity="1" stroke-width="1" stroke-linecap="butt" stroke-linejoin="miter" stroke="rgb(0%, 15.589516%, 61.436945%)" stroke-opacity="1" stroke-miterlimit="10" d="M 96.570312 40 L 40 96.570312 L -16.570312 40 L 40 -16.570312 Z M 96.570312 40 " transform="matrix(1, 0, 0, 1, 560, 160)"/>
<path fill-rule="nonzero" fill="rgb(100%, 100%, 100%)" fill-opacity="1" d="M 0 240 L 80 240 L 80 320 L 0 320 Z M 0 240 "/>
<path fill-rule="nonzero" fill="rgb(54.391482%, 16.743917%, 85.407845%)" fill-opacity="1" stroke-width="1" stroke-linecap="butt" stroke-linejoin="miter" stroke="rgb(34.391482%, 0%, 65.407845%)" stroke-opacity="1" stroke-miterlimit="10" d="M 96.570312 40 L 40 96.570312 L -16.570312 40 L 40 -16.570312 Z M 96.570312 40 " transform="matrix(0.000000000000000061, 1, -1, 0.000000000000000061, 80, 240)"/>
<path fill-rule="nonzero" fill="rgb(100%, 100%, 100%)" fill-opacity="1" d="M 80 240 L 160 240 L 160 320 L 80 320 Z M 80 240 "/>
<path fill-rule="nonzero" fill="rgb(58.629559%, 38.766374%, 2.392971%)" fill-opacity="1" stroke-width="1" stroke-linecap="butt" stroke-linejoin="miter" stroke="rgb(38.629559%, 18.766374%, 0%)" stroke-opacity="1" stroke-miterlimit="10" d="M 96.570312 40 L 40 96.570312 L -16.570312 40 L 40 -16.570312 Z M 96.570312 40 " transform="matrix(-1, 0.000000000000000122, -0.000000000000000122, -1, 160, 320)"/>
<path fill-rule="nonzero" fill="rgb(100%, 100%, 100%)" fill-opacity="1" d="M 160 240 L 240 240 L 240 320 L 160 320 Z M 160 240 "/>
<path fill-rule="nonzero" fill="rgb(37.32405%, 67.951262%, 30.682345%)" fill-opacity="1" stroke-width="1" stroke-linecap="butt" stroke-linejoin="miter" stroke="rgb(17.32405%, 47.951262%, 10.682345%)" stroke-opacity="1" stroke-miterlimit="10" d="M 96.570312 40 L 40 96.570312 L -16.570312 40 L 40 -16.570312 Z M 96.570312 40 " transform="matrix(1, 0, 0, 1, 160, 240)"/>
<path fill-rule="nonzero" fill="rgb(100%, 100%, 100%)" fill-opacity="1" d="M 240 240 L 320 240 L 320 320 L 240 320 Z M 240 240 "/>
<path fill-rule="nonzero" fill="rgb(98.287661%, 50.943299%, 22.891869%)" fill-opacity="1" stroke-width="1" stroke-linecap="butt" stroke-linejoin="miter" stroke="rgb(78.287661%, 30.943299%, 2.891869%)" stroke-opacity="1" stroke-miterlimit="10" d="M 96.570312 40 L 40 96.570313 L -16.570312 40 L 40 -16.570312 Z M 96.570312 40 " transform="matrix(-1, 0.000000000000000122, -0.000000000000000122, -1, 320, 320)"/>
<path fill-rule="nonzero" fill="rgb(100%, 100%, 100%)" fill-opacity="1" d="M 320 240 L 400 240 L 400 320 L 320 320 Z M 320 240 "/>
<path fill-rule="nonzero" fill="rgb(50.002902%, 47.198968%, 32.54588%)" fill-opacity="1" stroke-width="1" stroke-linecap="butt" stroke-linejoin="miter" stroke="rgb(30.002902%, 27.198968%, 12.54588%)" stroke-opacity="1" stroke-miterlimit="10" d="M 96.570312 40 L 40 96.570312 L -16.570312 40 L 40 -16.570312 Z M 96.570312 40 " transform="matrix(1, 0, 0, 1, 320, 240)"/>
<path fill-rule="nonzero" fill="rgb(100%, 100%, 100%)" fill-opacity="1" d="M 400 240 L 480 240 L 480 320 L 400 320 Z M 400 240 "/>
<path fill-rule="nonzero" fill="rgb(14.014617%, 28.10018%, 34.338373%)" fill-opacity="1" stroke-width="1" stroke-linecap="butt" stroke-linejoin="miter" stroke="rgb(0%, 8.10018%, 14.338373%)" stroke-opacity="1" stroke-miterlimit="10" d="M 96.570312 40 L 40 96.570312 L -16.570312 40 L 40 -16.570312 Z M 96.570312 40 " transform="matrix(0.000000000000000061, 1, -1, 0.000000000000000061, 480, 240)"/>
<path fill-rule="nonzero" fill="rgb(100%, 100%, 100%)" fill-opacity="1" d="M 480 240 L 560 240 L 560 320 L 480 320 Z M 480 240 "/>
<path fill-rule="nonzero" fill="rgb(10.607746%, 23.720956%, 91.148507%)" fill-opacity="1" stroke-width="1" stroke-linecap="butt" stroke-linejoin="miter" stroke="rgb(0%, 3.720956%, 71.148507%)" stroke-opacity="1" stroke-miterlimit="10" d="M 96.570312 40 L 40 96.570312 L -16.570312 40 L 40 -16.570312 Z M 96.570312 40 " transform="matrix(1, 0, 0, 1, 480, 240)"/>
<path fill-rule="nonzero" fill="rgb(100%, 100%, 100%)" fill-opacity="1" d="M 560 240 L 640 240 L 640 320 L 560 320 Z M 560 240 "/>
<path fill-rule="nonzero" fill="rgb(84.7963%, 81.638655%, 5.866659%)" fill-opacity="1" stroke-width="1" stroke-linecap="butt" stroke-linejoin="miter" stroke="rgb(64.7963%, 61.638655%, 0%)" stroke-opacity="1" stroke-miterlimit="10" d="M 96.570312 40 L 40 96.570312 L -16.570312 40 L 40 -16.570312 Z M 96.570312 40 " transform="matrix(-0.000000000000000184, -1, 1, -0.000000000000000184, 560, 320)"/>
<path fill-rule="nonzero" fill="rgb(100%, 100%, 100%)" fill-opacity="1" d="M 0 320 L 80 320 L 80 400 L 0 400 Z M 0 320 "/>
<path fill-rule="nonzero" fill="rgb(33.136142%, 61.241819%, 50.178778%)" fill-opacity="1" stroke-width="1" stroke-linecap="butt" stroke-linejoin="miter" stroke="rgb(13.136142%, 41.241819%, 30.178778%)" stroke-opacity="1" stroke-miterlimit="10" d="M 96.570312 40 L 40 96.570312 L -16.570312 40 L 40 -16.570312 Z M 96.570312 40 " transform="matrix(1, 0, 0, 1, 0, 320)"/>
<path fill-rule="nonzero" fill="rgb(100%, 100%, 100%)" fill-opacity="1" d="M 80 320 L 160 320 L 160 400 L 80 400 Z M 80 320 "/>
<path fill-rule="nonzero" fill="rgb(95.204958%, 62.574032%, 87.873222%)" fill-opacity="1" stroke-width="1" stroke-linecap="butt" stroke-linejoin="miter" stroke="rgb(75.204958%, 42.574032%, 67.873222%)" stroke-opacity="1" stroke-miterlimit="10" d="M 96.570312 40 L 40 96.570312 L -16.570312 40 L 40 -16.570312 Z M 96.570312 40 " transform="matrix(-1, 0.000000000000000122, -0.000000000000000122, -1, 160, 400)"/>
<path fill-rule="nonzero" fill="rgb(100%, 100%, 100%)" fill-opacity="1" d="M 160 320 L 240 320 L 240 400 L 160 400 Z M 160 320 "/>
<path fill-rule="nonzero" fill="rgb(85.913643%, 67.652321%, 92.599546%)" fill-opacity="1" stroke-width="1" stroke-linecap="butt" stroke-linejoin="miter" stroke="rgb(65.913643%, 47.652321%, 72.599546%)" stroke-opacity="1" stroke-miterlimit="10" d="M 96.570312 40 L 40 96.570312 L -16.570312 40 L 40 -16.570313 Z M 96.570312 40 " transform="matrix(0.000000000000000061, 1, -1, 0.000000000000000061, 240, 320)"/>
<path fill-rule="nonzero" fill="rgb(100%, 100%, 100%)" fill-opacity="1" d="M 240 320 L 320 320 L 320 400 L 240 400 Z M 240 320 "/>
<path fill-rule="nonzero" fill="rgb(92.282896%, 39.91171%, 13.433938%)" fill-opacity="1" stroke-width="1" stroke-linecap="butt" stroke-linejoin="miter" stroke="rgb(72.282896%, 19.91171%, 0%)" stroke-opacity="1" stroke-miterlimit="10" d="M 96.570312 40 L 40 96.570312 L -16.570312 40 L 40 -16.570312 Z M 96.570312 40 " transform="matrix(1, 0, 0, 1, 240, 320)"/>
<path fill-rule="nonzero" fill="rgb(100%, 100%, 100%)" fill-opacity="1" d="M 320 320 L 400 320 L 400 400 L 320 400 Z M 320 320 "/>
<path fill-rule="nonzero" fill="rgb(71.761396%, 37.08078%, 93.522014%)" fill-opacity="1" stroke-width="1" stroke-linecap="butt" stroke-linejoin="miter" stroke="rgb(51.761396%, 17.08078%, 73.522014%)" stroke-opacity="1" stroke-miterlimit="10" d="M 96.570312 40 L 40 96.570312 L -16.570312 40 L 40 -16.570312 Z M 96.570312 40 " transform="matrix(-1, 0.000000000000000122, -0.000000000000000122, -1, 400, 400)"/>
<path fill-rule="nonzero" fill="rgb(100%, 100%, 100%)" fill-opacity="1" d="M 400 320 L 480 320 L 480 400 L 400 400 Z M 400 320 "/>
<path fill-rule="nonzero" fill="rgb(91.658731%, 16.010506%, 36.922396%)" fill-opacity="1" stroke-width="1" stroke-linecap="butt" stroke-linejoin="miter" stroke="rgb(71.658731%, 0%, 16.922396%)" stroke-opacity="1" stroke-miterlimit="10" d="M 96.570312 40 L 40 96.570312 L -16.570312 40 L 40 -16.570312 Z M 96.570312 40 " transform="matrix(-1, 0.000000000000000122, -0.000000000000000122, -1, 480, 400)"/>
<path fill-rule="nonzero" fill="rgb(100%, 100%, 100%)" fill-opacity="1" d="M 480 320 L 560 320 L 560 400 L 480 400 Z M 480 320 "/>
<path fill-rule="nonzero" fill="rgb(64.549661%, 91.663442%, 75.985277%)" fill-opacity="1" stroke-width="1" stroke-linecap="butt" stroke-linejoin="miter" stroke="rgb(44.549661%, 71.663442%, 55.985277%)" stroke-opacity="1" stroke-miterlimit="10" d="M 96.570312 40 L 40 96.570312 L -16.570312 40 L 40 -16.570312 Z M 96.570312 40 " transform="matrix(1, 0, 0, 1, 480, 320)"/>
<path fill-rule="nonzero" fill="rgb(100%, 100%, 100%)" fill-opacity="1" d="M 560 320 L 640 320 L 640 400 L 560 400 Z M 560 320 "/>
<path fill-rule="nonzero" fill="rgb(78.050064%, 57.128852%, 50.776723%)" fill-opacity="1" stroke-width="1" stroke-linecap="butt" stroke-linejoin="miter" stroke="rgb(58.050064%, 37.128852%, 30.776723%)" stroke-opacity="1" stroke-miterlimit="10" d="M 96.570312 40 L 40 96.570312 L -16.570312 40 L 40 -16.570312 Z M 96.570312 40 " transform="matrix(-0.000000000000000184, -1, 1, -0.000000000000000184, 560, 400)"/>
<path fill-rule="nonzero" fill="rgb(100%, 100%, 100%)" fill-opacity="1" d="M 0 400 L 80 400 L 80 480 L 0 480 Z M 0 400 "/>
<path fill-rule="nonzero" fill="rgb(66.637202%, 28.04575%, 92.583791%)" fill-opacity="1" stroke-width="1" stroke-linecap="butt" stroke-linejoin="miter" stroke="rgb(46.637202%, 8.04575%, 72.583791%)" stroke-opacity="1" stroke-miterlimit="10" d="M 96.570312 40 L 40 96.570312 L -16.570312 40 L 40 -16.570313 Z M 96.570312 40 " transform="matrix(-0.000000000000000184, -1, 1, -0.000000000000000184, 0.000000000000007105, 480)"/>
<path fill-rule="nonzero" fill="rgb(100%, 100%, 100%)" fill-opacity="1" d="M 80 400 L 160 400 L 160 480 L 80 480 Z M 80 400 "/>
<path fill-rule="nonzero" fill="rgb(24.990812%, 55.609949%, 63.887432%)" fill-opacity="1" stroke-width="1" stroke-linecap="butt" stroke-linejoin="miter" stroke="rgb(4.990812%, 35.609949%, 43.887432%)" stroke-opacity="1" stroke-miterlimit="10" d="M 96.570312 40 L 40 96.570312 L -16.570312 40 L 40 -16.570312 Z M 96.570312 40 " transform="matrix(-1, 0.000000000000000122, -0.000000000000000122, -1, 160, 480)"/>
<path fill-rule="nonzero" fill="rgb(100%, 100%, 100%)" fill-opacity="1" d="M 160 400 L 240 400 L 240 480 L 160 480 Z M 160 400 "/>
<path fill-rule="nonzero" fill="rgb(8.36288%, 3.541164%, 96.835947%)" fill-opacity="1" stroke-width="1" stroke-linecap="butt" stroke-linejoin="miter" stroke="rgb(0%, 0%, 76.835947%)" stroke-opacity="1" stroke-miterlimit="10" d="M 96.570312 40 L 40 96.570312 L -16.570312 40 L 40 -16.570312 Z M 96.570312 40 " transform="matrix(1, 0, 0, 1, 160, 400)"/>
<path fill-rule="nonzero" fill="rgb(100%, 100%, 100%)" fill-opacity="1" d="M 240 400 L 320 400 L 320 480 L 240 480 Z M 240 400 "/>
<path fill-rule="nonzero" fill="rgb(30.158159%, 47.532316%, 83.346428%)" fill-opacity="1" stroke-width="1" stroke-linecap="butt" stroke-linejoin="miter" stroke="rgb(10.158159%, 27.532316%, 63.346428%)" stroke-opacity="1" stroke-miterlimit="10" d="M 96.570312 40 L 40 96.570312 L -16.570312 40 L 40 -16.570312 Z M 96.570312 40 " transform="matrix(1, 0, 0, 1, 240, 400)"/>
<path fill-rule="nonzero" fill="rgb(100%, 100%, 100%)" fill-opacity="1" d="M 320 400 L 400 400 L 400 480 L 320 480 Z M 320 400 "/>
<path fill-rule="nonzero" fill="rgb(22.714239%, 56.54184%, 93.704922%)" fill-opacity="1" stroke-width="1" stroke-linecap="butt" stroke-linejoin="miter" stroke="rgb(2.714239%, 36.54184%, 73.704922%)" stroke-opacity="1" stroke-miterlimit="10" d="M 96.570312 40 L 40 96.570312 L -16.570312 40 L 40 -16.570312 Z M 96.570312 40 " transform="matrix(1, 0, 0, 1, 320, 400)"/>
<path fill-rule="nonzero" fill="rgb(100%, 100%, 100%)" fill-opacity="1" d="M 400 400 L 480 400 L 480 480 L 400 480 Z M 400 400 "/>
<path fill-rule="nonzero" fill="rgb(26.654831%, 76.522848%, 88.340532%)" fill-opacity="1" stroke-width="1" stroke-linecap="butt" stroke-linejoin="miter" stroke="rgb(6.654831%, 56.522848%, 68.340532%)" stroke-opacity="1" stroke-miterlimit="10" d="M 96.570312 40 L 40 96.570312 L -16.570312 40 L 40 -16.570312 Z M 96.570312 40 " transform="matrix(-0.000000000000000184, -1, 1, -0.000000000000000184, 400, 480)"/>
<path fill-rule="nonzero" fill="rgb(100%, 100%, 100%)" fill-opacity="1" d="M 480 400 L 560 400 L 560 480 L 480 480 Z M 480 400 "/>
<path fill-rule="nonzero" fill="rgb(35.23669%, 10.759096%, 97.817224%)" fill-opacity="1" stroke-width="1" stroke-linecap="butt" stroke-linejoin="miter" stroke="rgb(15.23669%, 0%, 77.817224%)" stroke-opacity="1" stroke-miterlimit="10" d="M 96.570313 40 L 40 96.570312 L -16.570312 40 L 40 -16.570312 Z M 96.570313 40 " transform="matrix(-1, 0.000000000000000122, -0.000000000000000122, -1, 560, 480)"/>
<path fill-rule="nonzero" fill="rgb(100%, 100%, 100%)" fill-opacity="1" d="M 560 400 L 640 400 L 640 480 L 560 480 Z M 560 400 "/>
<path fill-rule="nonzero" fill="rgb(79.771917%, 76.500461%, 32.847883%)" fill-opacity="1" stroke-width="1" stroke-linecap="butt" stroke-linejoin="miter" stroke="rgb(59.771917%, 56.500461%, 12.847883%)" stroke-opacity="1" stroke-miterlimit="10" d="M 96.570312 40 L 40 96.570312 L -16.570312 40 L 40 -16.570312 Z M 96.570312 40 " transform="matrix(1, 0, 0, 1, 560, 400)"/>
</svg>
