<?xml version="1.0" encoding="UTF-8"?>
<svg xmlns="http://www.w3.org/2000/svg" xmlns:xlink="http://www.w3.org/1999/xlink" width="640" height="480" viewBox="0 0 640 480">
<path fill-rule="nonzero" fill="rgb(100%, 100%, 100%)" fill-opacity="1" d="M 0 0 L 80 0 L 80 80 L 0 80 Z M 0 0 "/>
<path fill-rule="nonzero" fill="rgb(47.45098%, 54.117647%, 61.960784%)" fill-opacity="1" stroke-width="1" stroke-linecap="butt" stroke-linejoin="miter" stroke="rgb(27.45098%, 34.117647%, 41.960784%)" stroke-opacity="1" stroke-miterlimit="10" d="M 96.570312 40 L 40 96.570312 L -16.570312 40 L 40 -16.570312 Z M 96.570312 40 "/>
<path fill-rule="nonzero" fill="rgb(100%, 100%, 100%)" fill-opacity="1" d="M 80 0 L 160 0 L 160 80 L 80 80 Z M 80 0 "/>
<path fill-rule="nonzero" fill="rgb(70.980392%, 0%, 36.862745%)" fill-opacity="1" stroke-width="1" stroke-linecap="butt" stroke-linejoin="miter" stroke="rgb(50.980392%, 0%, 16.862745%)" stroke-opacity="1" stroke-miterlimit="10" d="M 96.570312 40 L 40 96.570313 L -16.570312 40 L 40 -16.570312 Z M 96.570312 40 " transform="matrix(-0.000000000000000184, -1, 1, -0.000000000000000184, 80, 80)"/>
<path fill-rule="nonzero" fill="rgb(100%, 100%, 100%)" fill-opacity="1" d="M 160 0 L 240 0 L 240 80 L 160 80 Z M 160 0 "/>
<path fill-rule="nonzero" fill="rgb(34.901961%, 0.392157%, 63.921569%)" fill-opacity="1" stroke-width="1" stroke-linecap="butt" stroke-linejoin="miter" stroke="rgb(14.901961%, 0%, 43.921569%)" stroke-opacity="1" stroke-miterlimit="10" d="M 96.570312 40 L 40 96.570312 L -16.570313 40 L 40 -16.570312 Z M 96.570312 40 " transform="matrix(-0.000000000000000184, -1, 1, -0.000000000000000184, 160, 80)"/>
<path fill-rule="nonzero" fill="rgb(100%, 100%, 100%)" fill-opacity="1" d="M 240 0 L 320 0 L 320 80 L 240 80 Z M 240 0 "/>
<path fill-rule="nonzero" fill="rgb(77.647059%, 49.411765%, 90.980392%)" fill-opacity="1" stroke-width="1" stroke-linecap="butt" stroke-linejoin="miter" stroke="rgb(57.647059%, 29.411765%, 70.980392%)" stroke-opacity="1" stroke-miterlimit="10" d="M 96.570312 40 L 40 96.570312 L -16.570312 40 L 40 -16.570312 Z M 96.570312 40 " transform="matrix(1, 0, 0, 1, 240, 0)"/>
<path fill-rule="nonzero" fill="rgb(100%, 100%, 100%)" fill-opacity="1" d="M 320 0 L 400 0 L 400 80 L 320 80 Z M 320 0 "/>
<path fill-rule="nonzero" fill="rgb(8.627451%, 14.901961%, 100%)" fill-opacity="1" stroke-width="1" stroke-linecap="butt" stroke-linejoin="miter" stroke="rgb(0%, 0%, 80%)" stroke-opacity="1" stroke-miterlimit="10" d="M 96.570312 40 L 40 96.570312 L -16.570313 40 L 40 -16.570312 Z M 96.570312 40 " transform="matrix(-0.000000000000000184, -1, 1, -0.000000000000000184, 320, 80)"/>
<path fill-rule="nonzero" fill="rgb(100%, 100%, 100%)" fill-opacity="1" d="M 400 0 L 480 0 L 480 80 L 400 80 Z M 400 0 "/>
<path fill-rule="nonzero" fill="rgb(50.196078%, 31.372549%, 34.901961%)" fill-opacity="1" stroke-width="1" stroke-linecap="butt" stroke-linejoin="miter" stroke="rgb(30.196078%, 11.372549%, 14.901961%)" stroke-opacity="1" stroke-miterlimit="10" d="M 96.570312 40 L 40 96.570312 L -16.570312 40 L 40 -16.570312 Z M 96.570312 40 " transform="matrix(0.000000000000000061, 1, -1, 0.000000000000000061, 480, 0)"/>
<path fill-rule="nonzero" fill="rgb(100%, 100%, 100%)" fill-opacity="1" d="M 480 0 L 560 0 L 560 80 L 480 80 Z M 480 0 "/>
<path fill-rule="nonzero" fill="rgb(92.156863%, 37.647059%, 36.470588%)" fill-opacity="1" stroke-width="1" stroke-linecap="butt" stroke-linejoin="miter" stroke="rgb(72.156863%, 17.647059%, 16.470588%)" stroke-opacity="1" stroke-miterlimit="10" d="M 96.570312 40 L 40 96.570312 L -16.570312 40 L 40 -16.570312 Z M 96.570312 40 " transform="matrix(-1, 0.000000000000000122, -0.000000000000000122, -1, 560, 80)"/>
<path fill-rule="nonzero" fill="rgb(100%, 100%, 100%)" fill-opacity="1" d="M 560 0 L 640 0 L 640 80 L 560 80 Z M 560 0 "/>
<path fill-rule="nonzero" fill="rgb(34.901961%, 47.45098%, 78.431373%)" fill-opacity="1" stroke-width="1" stroke-linecap="butt" stroke-linejoin="miter" stroke="rgb(14.901961%, 27.45098%, 58.431373%)" stroke-opacity="1" stroke-miterlimit="10" d="M 96.570312 40 L 40 96.570312 L -16.570312 40 L 40 -16.570312 Z M 96.570312 40 " transform="matrix(0.000000000000000061, 1, -1, 0.000000000000000061, 640, 0)"/>
<path fill-rule="nonzero" fill="rgb(100%, 100%, 100%)" fill-opacity="1" d="M 0 80 L 80 80 L 80 160 L 0 160 Z M 0 80 "/>
<path fill-rule="nonzero" fill="rgb(50.980392%, 50.196078%, 33.72549%)" fill-opacity="1" stroke-width="1" stroke-linecap="butt" stroke-linejoin="miter" stroke="rgb(30.980392%, 30.196078%, 13.72549%)" stroke-opacity="1" stroke-miterlimit="10" d="M 96.570312 40 L 40 96.570312 L -16.570312 40 L 40 -16.570312 Z M 96.570312 40 " transform="matrix(-1, 0.000000000000000122, -0.000000000000000122, -1, 80, 160)"/>
<path fill-rule="nonzero" fill="rgb(100%, 100%, 100%)" fill-opacity="1" d="M 80 80 L 160 80 L 160 160 L 80 160 Z M 80 80 "/>
<path fill-rule="nonzero" fill="rgb(0%, 50.196078%, 41.176471%)" fill-opacity="1" stroke-width="1" stroke-linecap="butt" stroke-linejoin="miter" stroke="rgb(0%, 30.196078%, 21.176471%)" stroke-opacity="1" stroke-miterlimit="10" d="M 96.570313 40 L 40 96.570312 L -16.570312 40 L 40 -16.570313 Z M 96.570313 40 " transform="matrix(-1, 0.000000000000000122, -0.000000000000000122, -1, 160, 160)"/>
<path fill-rule="nonzero" fill="rgb(100%, 100%, 100%)" fill-opacity="1" d="M 160 80 L 240 80 L 240 160 L 160 160 Z M 160 80 "/>
<path fill-rule="nonzero" fill="rgb(0%, 75.686275%, 50.980392%)" fill-opacity="1" stroke-width="1" stroke-linecap="butt" stroke-linejoin="miter" stroke="rgb(0%, 55.686275%, 30.980392%)" stroke-opacity="1" stroke-miterlimit="10" d="M 96.570312 40 L 40 96.570312 L -16.570312 40 L 40 -16.570312 Z M 96.570312 40 " transform="matrix(1, 0, 0, 1, 160, 80)"/>
<path fill-rule="nonzero" fill="rgb(100%, 100%, 100%)" fill-opacity="1" d="M 240 80 L 320 80 L 320 160 L 240 160 Z M 240 80 "/>
<path fill-rule="nonzero" fill="rgb(41.176471%, 54.901961%, 74.117647%)" fill-opacity="1" stroke-width="1" stroke-linecap="butt" stroke-linejoin="miter" stroke="rgb(21.176471%, 34.901961%, 54.117647%)" stroke-opacity="1" stroke-miterlimit="10" d="M 96.570312 40 L 40 96.570312 L -16.570312 40 L 40 -16.570312 Z M 96.570312 40 " transform="matrix(1, 0, 0, 1, 240, 80)"/>
<path fill-rule="nonzero" fill="rgb(100%, 100%, 100%)" fill-opacity="1" d="M 320 80 L 400 80 L 400 160 L 320 160 Z M 320 80 "/>
<path fill-rule="nonzero" fill="rgb(68.627451%, 36.470588%, 81.960784%)" fill-opacity="1" stroke-width="1" stroke-linecap="butt" stroke-linejoin="miter" stroke="rgb(48.627451%, 16.470588%, 61.960784%)" stroke-opacity="1" stroke-miterlimit="10" d="M 96.570312 40 L 40 96.570312 L -16.570313 40 L 40 -16.570312 Z M 96.570312 40 " transform="matrix(0.000000000000000061, 1, -1, 0.000000000000000061, 400, 80)"/>
<path fill-rule="nonzero" fill="rgb(100%, 100%, 100%)" fill-opacity="1" d="M 400 80 L 480 80 L 480 160 L 400 160 Z M 400 80 "/>
<path fill-rule="nonzero" fill="rgb(63.921569%, 15.686275%, 9.411765%)" fill-opacity="1" stroke-width="1" stroke-linecap="butt" stroke-linejoin="miter" stroke="rgb(43.921569%, 0%, 0%)" stroke-opacity="1" stroke-miterlimit="10" d="M 96.570312 40 L 40 96.570312 L -16.570312 40 L 40 -16.570312 Z M 96.570312 40 " transform="matrix(1, 0, 0, 1, 400, 80)"/>
<path fill-rule="nonzero" fill="rgb(100%, 100%, 100%)" fill-opacity="1" d="M 480 80 L 560 80 L 560 160 L 480 160 Z M 480 80 "/>
<path fill-rule="nonzero" fill="rgb(48.235294%, 27.45098%, 0%)" fill-opacity="1" stroke-width="1" stroke-linecap="butt" stroke-linejoin="miter" stroke="rgb(28.235294%, 7.45098%, 0%)" stroke-opacity="1" stroke-miterlimit="10" d="M 96.570312 40 L 40 96.570312 L -16.570312 40 L 40 -16.570312 Z M 96.570312 40 " transform="matrix(1, 0, 0, 1, 480, 80)"/>
<path fill-rule="nonzero" fill="rgb(100%, 100%, 100%)" fill-opacity="1" d="M 560 80 L 640 80 L 640 160 L 560 160 Z M 560 80 "/>
<path fill-rule="nonzero" fill="rgb(29.411765%, 30.980392%, 0.392157%)" fill-opacity="1" stroke-width="1" stroke-linecap="butt" stroke-linejoin="miter" stroke="rgb(9.411765%, 10.980392%, 0%)" stroke-opacity="1" stroke-miterlimit="10" d="M 96.570312 40 L 40 96.570312 L -16.570312 40 L 40 -16.570313 Z M 96.570312 40 " transform="matrix(-1, 0.000000000000000122, -0.000000000000000122, -1, 640, 160)"/>
<path fill-rule="nonzero" fill="rgb(100%, 100%, 100%)" fill-opacity="1" d="M 0 160 L 80 160 L 80 240 L 0 240 Z M 0 160 "/>
<path fill-rule="nonzero" fill="rgb(51.372549%, 18.431373%, 20%)" fill-opacity="1" stroke-width="1" stroke-linecap="butt" stroke-linejoin="miter" stroke="rgb(31.372549%, 0%, 0%)" stroke-opacity="1" stroke-miterlimit="10" d="M 96.570312 40 L 40 96.570312 L -16.570312 40 L 40 -16.570312 Z M 96.570312 40 " transform="matrix(1, 0, 0, 1, 0, 160)"/>
<path fill-rule="nonzero" fill="rgb(100%, 100%, 100%)" fill-opacity="1" d="M 80 160 L 160 160 L 160 240 L 80 240 Z M 80 160 "/>
<path fill-rule="nonzero" fill="rgb(92.156863%, 1.960784%, 32.156863%)" fill-opacity="1" stroke-width="1" stroke-linecap="butt" stroke-linejoin="miter" stroke="rgb(72.156863%, 0%, 12.156863%)" stroke-opacity="1" stroke-miterlimit="10" d="M 96.570312 40 L 40 96.570313 L -16.570312 40 L 40 -16.570312 Z M 96.570312 40 " transform="matrix(0.000000000000000061, 1, -1, 0.000000000000000061, 160, 160)"/>
<path fill-rule="nonzero" fill="rgb(100%, 100%, 100%)" fill-opacity="1" d="M 160 160 L 240 160 L 240 240 L 160 240 Z M 160 160 "/>
<path fill-rule="nonzero" fill="rgb(94.901961%, 0%, 48.235294%)" fill-opacity="1" stroke-width="1" stroke-linecap="butt" stroke-linejoin="miter" stroke="rgb(74.901961%, 0%, 28.235294%)" stroke-opacity="1" stroke-miterlimit="10" d="M 96.570312 40 L 40 96.570312 L -16.570312 40 L 40 -16.570312 Z M 96.570312 40 " transform="matrix(1, 0, 0, 1, 160, 160)"/>
<path fill-rule="nonzero" fill="rgb(100%, 100%, 100%)" fill-opacity="1" d="M 240 160 L 320 160 L 320 240 L 240 240 Z M 240 160 "/>
<path fill-rule="nonzero" fill="rgb(21.960784%, 0%, 0%)" fill-opacity="1" stroke-width="1" stroke-linecap="butt" stroke-linejoin="miter" stroke="rgb(1.960784%, 0%, 0%)" stroke-opacity="1" stroke-miterlimit="10" d="M 96.570313 40 L 40 96.570312 L -16.570312 40 L 40 -16.570313 Z M 96.570313 40 " transform="matrix(-1, 0.000000000000000122, -0.000000000000000122, -1, 320, 240)"/>
<path fill-rule="nonzero" fill="rgb(100%, 100%, 100%)" fill-opacity="1" d="M 320 160 L 400 160 L 400 240 L 320 240 Z M 320 160 "/>
<path fill-rule="nonzero" fill="rgb(63.921569%, 56.470588%, 68.627451%)" fill-opacity="1" stroke-width="1" stroke-linecap="butt" stroke-linejoin="miter" stroke="rgb(43.921569%, 36.470588%, 48.627451%)" stroke-opacity="1" stroke-miterlimit="10" d="M 96.570312 40 L 40 96.570312 L -16.570312 40 L 40 -16.570312 Z M 96.570312 40 " transform="matrix(1, 0, 0, 1, 320, 160)"/>
<path fill-rule="nonzero" fill="rgb(100%, 100%, 100%)" fill-opacity="1" d="M 400 160 L 480 160 L 480 240 L 400 240 Z M 400 160 "/>
<path fill-rule="nonzero" fill="rgb(30.196078%, 20%, 100%)" fill-opacity="1" stroke-width="1" stroke-linecap="butt" stroke-linejoin="miter" stroke="rgb(10.196078%, 0%, 80%)" stroke-opacity="1" stroke-miterlimit="10" d="M 96.570312 40 L 40 96.570312 L -16.570312 40 L 40 -16.570312 Z M 96.570312 40 " transform="matrix(-0.000000000000000184, -1, 1, -0.000000000000000184, 400, 240)"/>
<path fill-rule="nonzero" fill="rgb(100%, 100%, 100%)" fill-opacity="1" d="M 480 160 L 560 160 L 560 240 L 480 240 Z M 480 160 "/>
<path fill-rule="nonzero" fill="rgb(41.960784%, 59.215686%, 0%)" fill-opacity="1" stroke-width="1" stroke-linecap="butt" stroke-linejoin="miter" stroke="rgb(21.960784%, 39.215686%, 0%)" stroke-opacity="1" stroke-miterlimit="10" d="M 96.570312 40 L 40 96.570312 L -16.570312 40 L 40 -16.570312 Z M 96.570312 40 " transform="matrix(1, 0, 0, 1, 480, 160)"/>
<path fill-rule="nonzero" fill="rgb(100%, 100%, 100%)" fill-opacity="1" d="M 560 160 L 640 160 L 640 240 L 560 240 Z M 560 160 "/>
<path fill-rule="nonzero" fill="rgb(46.666667%, 33.72549%, 23.137255%)" fill-opacity="1" stroke-width="1" stroke-linecap="butt" stroke-linejoin="miter" stroke="rgb(26.666667%, 13.72549%, 3.137255%)" stroke-opacity="1" stroke-miterlimit="10" d="M 96.570312 40 L 40 96.570312 L -16.570312 40 L 40 -16.570312 Z M 96.570312 40 " transform="matrix(-1, 0.000000000000000122, -0.000000000000000122, -1, 640, 240)"/>
<path fill-rule="nonzero" fill="rgb(100%, 100%, 100%)" fill-opacity="1" d="M 0 240 L 80 240 L 80 320 L 0 320 Z M 0 240 "/>
<path fill-rule="nonzero" fill="rgb(100%, 32.156863%, 21.960784%)" fill-opacity="1" stroke-width="1" stroke-linecap="butt" stroke-linejoin="miter" stroke="rgb(80%, 12.156863%, 1.960784%)" stroke-opacity="1" stroke-miterlimit="10" d="M 96.570312 40 L 40 96.570312 L -16.570312 40 L 40 -16.570312 Z M 96.570312 40 " transform="matrix(-1, 0.000000000000000122, -0.000000000000000122, -1, 80, 320)"/>
<path fill-rule="nonzero" fill="rgb(100%, 100%, 100%)" fill-opacity="1" d="M 80 240 L 160 240 L 160 320 L 80 320 Z M 80 240 "/>
<path fill-rule="nonzero" fill="rgb(76.470588%, 20.392157%, 19.215686%)" fill-opacity="1" stroke-width="1" stroke-linecap="butt" stroke-linejoin="miter" stroke="rgb(56.470588%, 0.392157%, 0%)" stroke-opacity="1" stroke-miterlimit="10" d="M 96.570312 40 L 40 96.570313 L -16.570312 40 L 40 -16.570312 Z M 96.570312 40 " transform="matrix(0.000000000000000061, 1, -1, 0.000000000000000061, 160, 240)"/>
<path fill-rule="nonzero" fill="rgb(100%, 100%, 100%)" fill-opacity="1" d="M 160 240 L 240 240 L 240 320 L 160 320 Z M 160 240 "/>
<path fill-rule="nonzero" fill="rgb(54.117647%, 52.156863%, 68.235294%)" fill-opacity="1" stroke-width="1" stroke-linecap="butt" stroke-linejoin="miter" stroke="rgb(34.117647%, 32.156863%, 48.235294%)" stroke-opacity="1" stroke-miterlimit="10" d="M 96.570312 40 L 40 96.570312 L -16.570312 40 L 40 -16.570312 Z M 96.570312 40 " transform="matrix(1, 0, 0, 1, 160, 240)"/>
<path fill-rule="nonzero" fill="rgb(100%, 100%, 100%)" fill-opacity="1" d="M 240 240 L 320 240 L 320 320 L 240 320 Z M 240 240 "/>
<path fill-rule="nonzero" fill="rgb(51.372549%, 58.431373%, 39.215686%)" fill-opacity="1" stroke-width="1" stroke-linecap="butt" stroke-linejoin="miter" stroke="rgb(31.372549%, 38.431373%, 19.215686%)" stroke-opacity="1" stroke-miterlimit="10" d="M 96.570312 40 L 40 96.570312 L -16.570312 40 L 40 -16.570312 Z M 96.570312 40 " transform="matrix(1, 0, 0, 1, 240, 240)"/>
<path fill-rule="nonzero" fill="rgb(100%, 100%, 100%)" fill-opacity="1" d="M 320 240 L 400 240 L 400 320 L 320 320 Z M 320 240 "/>
<path fill-rule="nonzero" fill="rgb(46.666667%, 33.72549%, 23.137255%)" fill-opacity="1" stroke-width="1" stroke-linecap="butt" stroke-linejoin="miter" stroke="rgb(26.666667%, 13.72549%, 3.137255%)" stroke-opacity="1" stroke-miterlimit="10" d="M 96.570312 40 L 40 96.570312 L -16.570312 40 L 40 -16.570312 Z M 96.570312 40 " transform="matrix(0.000000000000000061, 1, -1, 0.000000000000000061, 400, 240)"/>
<path fill-rule="nonzero" fill="rgb(100%, 100%, 100%)" fill-opacity="1" d="M 400 240 L 480 240 L 480 320 L 400 320 Z M 400 240 "/>
<path fill-rule="nonzero" fill="rgb(50.196078%, 31.372549%, 34.901961%)" fill-opacity="1" stroke-width="1" stroke-linecap="butt" stroke-linejoin="miter" stroke="rgb(30.196078%, 11.372549%, 14.901961%)" stroke-opacity="1" stroke-miterlimit="10" d="M 96.570312 40 L 40 96.570312 L -16.570312 40 L 40 -16.570312 Z M 96.570312 40 " transform="matrix(0.000000000000000061, 1, -1, 0.000000000000000061, 480, 240)"/>
<path fill-rule="nonzero" fill="rgb(100%, 100%, 100%)" fill-opacity="1" d="M 480 240 L 560 240 L 560 320 L 480 320 Z M 480 240 "/>
<path fill-rule="nonzero" fill="rgb(78.431373%, 60.392157%, 41.176471%)" fill-opacity="1" stroke-width="1" stroke-linecap="butt" stroke-linejoin="miter" stroke="rgb(58.431373%, 40.392157%, 21.176471%)" stroke-opacity="1" stroke-miterlimit="10" d="M 96.570312 40 L 40 96.570312 L -16.570312 40 L 40 -16.570312 Z M 96.570312 40 " transform="matrix(1, 0, 0, 1, 480, 240)"/>
<path fill-rule="nonzero" fill="rgb(100%, 100%, 100%)" fill-opacity="1" d="M 560 240 L 640 240 L 640 320 L 560 320 Z M 560 240 "/>
<path fill-rule="nonzero" fill="rgb(2.745098%, 45.490196%, 84.705882%)" fill-opacity="1" stroke-width="1" stroke-linecap="butt" stroke-linejoin="miter" stroke="rgb(0%, 25.490196%, 64.705882%)" stroke-opacity="1" stroke-miterlimit="10" d="M 96.570312 40 L 40 96.570312 L -16.570312 40 L 40 -16.570312 Z M 96.570312 40 " transform="matrix(-0.000000000000000184, -1, 1, -0.000000000000000184, 560, 320)"/>
<path fill-rule="nonzero" fill="rgb(100%, 100%, 100%)" fill-opacity="1" d="M 0 320 L 80 320 L 80 400 L 0 400 Z M 0 320 "/>
<path fill-rule="nonzero" fill="rgb(77.647059%, 49.411765%, 90.980392%)" fill-opacity="1" stroke-width="1" stroke-linecap="butt" stroke-linejoin="miter" stroke="rgb(57.647059%, 29.411765%, 70.980392%)" stroke-opacity="1" stroke-miterlimit="10" d="M 96.570312 40 L 40 96.570312 L -16.570312 40 L 40 -16.570312 Z M 96.570312 40 " transform="matrix(-1, 0.000000000000000122, -0.000000000000000122, -1, 80, 400)"/>
<path fill-rule="nonzero" fill="rgb(100%, 100%, 100%)" fill-opacity="1" d="M 80 320 L 160 320 L 160 400 L 80 400 Z M 80 320 "/>
<path fill-rule="nonzero" fill="rgb(39.215686%, 32.941176%, 44.705882%)" fill-opacity="1" stroke-width="1" stroke-linecap="butt" stroke-linejoin="miter" stroke="rgb(19.215686%, 12.941176%, 24.705882%)" stroke-opacity="1" stroke-miterlimit="10" d="M 96.570312 40 L 40 96.570312 L -16.570312 40 L 40 -16.570312 Z M 96.570312 40 " transform="matrix(0.000000000000000061, 1, -1, 0.000000000000000061, 160, 320)"/>
<path fill-rule="nonzero" fill="rgb(100%, 100%, 100%)" fill-opacity="1" d="M 160 320 L 240 320 L 240 400 L 160 400 Z M 160 320 "/>
<path fill-rule="nonzero" fill="rgb(40%, 61.176471%, 30.196078%)" fill-opacity="1" stroke-width="1" stroke-linecap="butt" stroke-linejoin="miter" stroke="rgb(20%, 41.176471%, 10.196078%)" stroke-opacity="1" stroke-miterlimit="10" d="M 96.570312 40 L 40 96.570312 L -16.570312 40 L 40 -16.570312 Z M 96.570312 40 " transform="matrix(-0.000000000000000184, -1, 1, -0.000000000000000184, 160, 400)"/>
<path fill-rule="nonzero" fill="rgb(100%, 100%, 100%)" fill-opacity="1" d="M 240 320 L 320 320 L 320 400 L 240 400 Z M 240 320 "/>
<path fill-rule="nonzero" fill="rgb(8.235294%, 88.235294%, 54.901961%)" fill-opacity="1" stroke-width="1" stroke-linecap="butt" stroke-linejoin="miter" stroke="rgb(0%, 68.235294%, 34.901961%)" stroke-opacity="1" stroke-miterlimit="10" d="M 96.570312 40 L 40 96.570312 L -16.570312 40 L 40 -16.570312 Z M 96.570312 40 " transform="matrix(1, 0, 0, 1, 240, 320)"/>
<path fill-rule="nonzero" fill="rgb(100%, 100%, 100%)" fill-opacity="1" d="M 320 320 L 400 320 L 400 400 L 320 400 Z M 320 320 "/>
<path fill-rule="nonzero" fill="rgb(66.666667%, 0%, 17.647059%)" fill-opacity="1" stroke-width="1" stroke-linecap="butt" stroke-linejoin="miter" stroke="rgb(46.666667%, 0%, 0%)" stroke-opacity="1" stroke-miterlimit="10" d="M 96.570312 40 L 40 96.570312 L -16.570312 40 L 40 -16.570312 Z M 96.570312 40 " transform="matrix(1, 0, 0, 1, 320, 320)"/>
<path fill-rule="nonzero" fill="rgb(100%, 100%, 100%)" fill-opacity="1" d="M 400 320 L 480 320 L 480 400 L 400 400 Z M 400 320 "/>
<path fill-rule="nonzero" fill="rgb(12.941176%, 82.745098%, 100%)" fill-opacity="1" stroke-width="1" stroke-linecap="butt" stroke-linejoin="miter" stroke="rgb(0%, 62.745098%, 80%)" stroke-opacity="1" stroke-miterlimit="10" d="M 96.570312 40 L 40 96.570312 L -16.570312 40 L 40 -16.570312 Z M 96.570312 40 " transform="matrix(1, 0, 0, 1, 400, 320)"/>
<path fill-rule="nonzero" fill="rgb(100%, 100%, 100%)" fill-opacity="1" d="M 480 320 L 560 320 L 560 400 L 480 400 Z M 480 320 "/>
<path fill-rule="nonzero" fill="rgb(51.372549%, 18.431373%, 20%)" fill-opacity="1" stroke-width="1" stroke-linecap="butt" stroke-linejoin="miter" stroke="rgb(31.372549%, 0%, 0%)" stroke-opacity="1" stroke-miterlimit="10" d="M 96.570312 40 L 40 96.570312 L -16.570312 40 L 40 -16.570312 Z M 96.570312 40 " transform="matrix(0.000000000000000061, 1, -1, 0.000000000000000061, 560, 320)"/>
<path fill-rule="nonzero" fill="rgb(100%, 100%, 100%)" fill-opacity="1" d="M 560 320 L 640 320 L 640 400 L 560 400 Z M 560 320 "/>
<path fill-rule="nonzero" fill="rgb(29.411765%, 30.980392%, 0.392157%)" fill-opacity="1" stroke-width="1" stroke-linecap="butt" stroke-linejoin="miter" stroke="rgb(9.411765%, 10.980392%, 0%)" stroke-opacity="1" stroke-miterlimit="10" d="M 96.570312 40 L 40 96.570312 L -16.570312 40 L 40 -16.570312 Z M 96.570312 40 " transform="matrix(0.000000000000000061, 1, -1, 0.000000000000000061, 640, 320)"/>
<path fill-rule="nonzero" fill="rgb(100%, 100%, 100%)" fill-opacity="1" d="M 0 400 L 80 400 L 80 480 L 0 480 Z M 0 400 "/>
<path fill-rule="nonzero" fill="rgb(70.196078%, 80.392157%, 0%)" fill-opacity="1" stroke-width="1" stroke-linecap="butt" stroke-linejoin="miter" stroke="rgb(50.196078%, 60.392157%, 0%)" stroke-opacity="1" stroke-miterlimit="10" d="M 96.570312 40 L 40 96.570312 L -16.570312 40 L 40 -16.570312 Z M 96.570312 40 " transform="matrix(-1, 0.000000000000000122, -0.000000000000000122, -1, 80, 480)"/>
<path fill-rule="nonzero" fill="rgb(100%, 100%, 100%)" fill-opacity="1" d="M 80 400 L 160 400 L 160 480 L 80 480 Z M 80 400 "/>
<path fill-rule="nonzero" fill="rgb(51.372549%, 0%, 81.176471%)" fill-opacity="1" stroke-width="1" stroke-linecap="butt" stroke-linejoin="miter" stroke="rgb(31.372549%, 0%, 61.176471%)" stroke-opacity="1" stroke-miterlimit="10" d="M 96.570312 40 L 40 96.570312 L -16.570312 40 L 40 -16.570312 Z M 96.570312 40 " transform="matrix(1, 0, 0, 1, 80, 400)"/>
<path fill-rule="nonzero" fill="rgb(100%, 100%, 100%)" fill-opacity="1" d="M 160 400 L 240 400 L 240 480 L 160 480 Z M 160 400 "/>
<path fill-rule="nonzero" fill="rgb(75.686275%, 25.490196%, 1.176471%)" fill-opacity="1" stroke-width="1" stroke-linecap="butt" stroke-linejoin="miter" stroke="rgb(55.686275%, 5.490196%, 0%)" stroke-opacity="1" stroke-miterlimit="10" d="M 96.570312 40 L 40 96.570313 L -16.570312 40 L 40 -16.570312 Z M 96.570312 40 " transform="matrix(-0.000000000000000184, -1, 1, -0.000000000000000184, 160, 480)"/>
<path fill-rule="nonzero" fill="rgb(100%, 100%, 100%)" fill-opacity="1" d="M 240 400 L 320 400 L 320 480 L 240 480 Z M 240 400 "/>
<path fill-rule="nonzero" fill="rgb(100%, 41.176471%, 53.72549%)" fill-opacity="1" stroke-width="1" stroke-linecap="butt" stroke-linejoin="miter" stroke="rgb(80%, 21.176471%, 33.72549%)" stroke-opacity="1" stroke-miterlimit="10" d="M 96.570312 40 L 40 96.570313 L -16.570312 40 L 40 -16.570312 Z M 96.570312 40 " transform="matrix(0.000000000000000061, 1, -1, 0.000000000000000061, 320, 400)"/>
<path fill-rule="nonzero" fill="rgb(100%, 100%, 100%)" fill-opacity="1" d="M 320 400 L 400 400 L 400 480 L 320 480 Z M 320 400 "/>
<path fill-rule="nonzero" fill="rgb(68.627451%, 64.705882%, 0.392157%)" fill-opacity="1" stroke-width="1" stroke-linecap="butt" stroke-linejoin="miter" stroke="rgb(48.627451%, 44.705882%, 0%)" stroke-opacity="1" stroke-miterlimit="10" d="M 96.570312 40 L 40 96.570312 L -16.570312 40 L 40 -16.570312 Z M 96.570312 40 " transform="matrix(-0.000000000000000184, -1, 1, -0.000000000000000184, 320, 480)"/>
<path fill-rule="nonzero" fill="rgb(100%, 100%, 100%)" fill-opacity="1" d="M 400 400 L 480 400 L 480 480 L 400 480 Z M 400 400 "/>
<path fill-rule="nonzero" fill="rgb(6.666667%, 25.882353%, 10.980392%)" fill-opacity="1" stroke-width="1" stroke-linecap="butt" stroke-linejoin="miter" stroke="rgb(0%, 5.882353%, 0%)" stroke-opacity="1" stroke-miterlimit="10" d="M 96.570312 40 L 40 96.570312 L -16.570312 40 L 40 -16.570312 Z M 96.570312 40 " transform="matrix(1, 0, 0, 1, 400, 400)"/>
<path fill-rule="nonzero" fill="rgb(100%, 100%, 100%)" fill-opacity="1" d="M 480 400 L 560 400 L 560 480 L 480 480 Z M 480 400 "/>
<path fill-rule="nonzero" fill="rgb(70.980392%, 51.372549%, 27.45098%)" fill-opacity="1" stroke-width="1" stroke-linecap="butt" stroke-linejoin="miter" stroke="rgb(50.980392%, 31.372549%, 7.45098%)" stroke-opacity="1" stroke-miterlimit="10" d="M 96.570312 40 L 40 96.570312 L -16.570312 40 L 40 -16.570312 Z M 96.570312 40 " transform="matrix(1, 0, 0, 1, 480, 400)"/>
<path fill-rule="nonzero" fill="rgb(100%, 100%, 100%)" fill-opacity="1" d="M 560 400 L 640 400 L 640 480 L 560 480 Z M 560 400 "/>
<path fill-rule="nonzero" fill="rgb(0.392157%, 52.941176%, 0%)" fill-opacity="1" stroke-width="1" stroke-linecap="butt" stroke-linejoin="miter" stroke="rgb(0%, 32.941176%, 0%)" stroke-opacity="1" stroke-miterlimit="10" d="M 96.570312 40 L 40 96.570312 L -16.570312 40 L 40 -16.570312 Z M 96.570312 40 " transform="matrix(1, 0, 0, 1, 560, 400)"/>
</svg>
